<svg xmlns="http://www.w3.org/2000/svg" xmlns:xlink="http://www.w3.org/1999/xlink" width="720" zoomAndPan="magnify" viewBox="0 0 540 767.999994" height="1024" preserveAspectRatio="xMidYMid meet" version="1.0"><defs><g/></defs><g fill="#fff8e7" fill-opacity="1"><g transform="translate(492.072717, 2.181779)"><g><path d="M 4.691406 15.460938 L 27.332031 -44.40625 L 23.859375 -45.71875 L 1.21875 14.148438 Z M 4.691406 15.460938 "/></g></g></g><g fill="#fff8e7" fill-opacity="1"><g transform="translate(206.582677, -10.375291)"><g><path d="M 36.8125 -5.238281 C 40.320312 -14.515625 37.941406 -22.875 29.199219 -26.183594 C 20.519531 -29.464844 11.644531 -25.363281 7.75 -15.066406 C 3.515625 -3.871094 7.644531 3.847656 15.90625 6.972656 C 22.433594 9.441406 29.769531 8.316406 33.925781 1.128906 L 28.535156 -0.910156 C 26.097656 3.371094 21.769531 4.675781 17.640625 3.113281 C 12.972656 1.347656 10.085938 -2.960938 12.773438 -11.523438 L 35.765625 -2.828125 C 36.3125 -3.921875 36.628906 -4.757812 36.8125 -5.238281 Z M 27.585938 -22.277344 C 32.792969 -20.304688 34.179688 -15.46875 32.167969 -8.703125 L 14.328125 -15.453125 C 17.488281 -21.988281 22.558594 -24.179688 27.585938 -22.277344 Z M 27.585938 -22.277344 "/></g></g></g><g fill="#fff8e7" fill-opacity="1"><g transform="translate(239.444625, 2.053671)"><g/></g></g><g fill="#fff8e7" fill-opacity="1"><g transform="translate(252.373923, 6.943757)"><g><path d="M 38.269531 -33.699219 C 26.535156 -38.136719 15.3125 -31.980469 10.558594 -19.410156 C 5.984375 -7.316406 9.203125 4.4375 21.234375 8.988281 C 32.128906 13.109375 40.167969 8.691406 43.773438 1.5 L 44.0625 0.925781 L 38.914062 -1.023438 L 38.566406 -0.46875 C 35.128906 5.003906 29.957031 7.636719 23.074219 5.03125 C 14.933594 1.953125 12.546875 -7.296875 16.394531 -17.476562 C 20.175781 -27.472656 28.167969 -32.867188 36.609375 -29.675781 C 43.496094 -27.070312 45.628906 -21.679688 44.585938 -15.300781 L 44.480469 -14.65625 L 49.628906 -12.707031 L 49.792969 -13.328125 C 52.011719 -21.726562 48.746094 -29.738281 38.269531 -33.699219 Z M 38.269531 -33.699219 "/></g></g></g><g fill="#fff8e7" fill-opacity="1"><g transform="translate(294.214553, 22.768613)"><g><path d="M 29.859375 -25.933594 C 19.082031 -30.007812 11.191406 -24.164062 7.796875 -15.183594 C 4.421875 -6.265625 6.449219 3.398438 17.222656 7.472656 C 28 11.546875 35.914062 5.644531 39.285156 -3.273438 C 42.683594 -12.253906 40.632812 -21.855469 29.859375 -25.933594 Z M 18.71875 3.519531 C 12.3125 1.097656 10.617188 -5.632812 13.421875 -13.058594 C 16.253906 -20.539062 21.957031 -24.40625 28.363281 -21.980469 C 34.769531 -19.558594 36.488281 -12.886719 33.660156 -5.402344 C 30.851562 2.019531 25.125 5.945312 18.71875 3.519531 Z M 18.71875 3.519531 "/></g></g></g><g fill="#fff8e7" fill-opacity="1"><g transform="translate(329.291238, 36.035227)"><g><path d="M 39.9375 -11.515625 C 41.566406 -17.261719 39.078125 -22.445312 32.132812 -25.074219 C 28.902344 -26.296875 26.363281 -26.640625 22.875 -25.5625 L 19.519531 -22.660156 L 21.578125 -28.105469 L 16.429688 -30.054688 L 4.429688 1.675781 L 9.578125 3.621094 L 14.855469 -10.324219 C 18.953125 -21.160156 24.546875 -23.289062 29.515625 -21.410156 C 34.425781 -19.550781 35.417969 -16.027344 34.3125 -12.203125 C 33.824219 -10.542969 33.324219 -9.226562 32.714844 -7.609375 L 26.101562 9.871094 L 31.25 11.820312 L 37.996094 -6.019531 C 38.972656 -8.59375 39.445312 -9.851562 39.9375 -11.515625 Z M 39.9375 -11.515625 "/></g></g></g><g fill="#fff8e7" fill-opacity="1"><g transform="translate(364.786923, 49.460314)"><g><path d="M 42.414062 -20.226562 L 36.964844 -22.289062 L 16.871094 2.070312 L 17.746094 -29.554688 L 12.058594 -31.707031 L 12.09375 4.574219 L 18.378906 6.953125 Z M 42.414062 -20.226562 "/></g></g></g><g fill="#fff8e7" fill-opacity="1"><g transform="translate(395.553849, 61.096902)"><g><path d="M 36.8125 -5.238281 C 40.320312 -14.515625 37.941406 -22.875 29.199219 -26.183594 C 20.519531 -29.464844 11.644531 -25.363281 7.75 -15.066406 C 3.515625 -3.871094 7.644531 3.847656 15.90625 6.972656 C 22.433594 9.441406 29.769531 8.316406 33.925781 1.128906 L 28.535156 -0.910156 C 26.097656 3.371094 21.769531 4.675781 17.640625 3.113281 C 12.972656 1.347656 10.085938 -2.960938 12.773438 -11.523438 L 35.765625 -2.828125 C 36.3125 -3.921875 36.628906 -4.757812 36.8125 -5.238281 Z M 27.585938 -22.277344 C 32.792969 -20.304688 34.179688 -15.46875 32.167969 -8.703125 L 14.328125 -15.453125 C 17.488281 -21.988281 22.558594 -24.179688 27.585938 -22.277344 Z M 27.585938 -22.277344 "/></g></g></g><g fill="#fff8e7" fill-opacity="1"><g transform="translate(428.415819, 73.525873)"><g><path d="M 29.15625 -26.0625 C 27.65625 -26.628906 25.835938 -26.699219 24.179688 -26.300781 L 19.699219 -23.136719 L 21.578125 -28.105469 L 16.429688 -30.054688 L 4.429688 1.675781 L 9.578125 3.621094 L 16.417969 -14.457031 C 19.15625 -21.699219 24.425781 -23.332031 29.679688 -20.9375 L 31.152344 -24.828125 C 30.664062 -25.355469 29.992188 -25.746094 29.15625 -26.0625 Z M 29.15625 -26.0625 "/></g></g></g><g fill="#fff8e7" fill-opacity="1"><g transform="translate(448.168898, 80.996831)"><g><path d="M 25.96875 -27.40625 C 19.441406 -29.871094 13.699219 -28.074219 11.5 -22.269531 C 9.394531 -16.703125 13.0625 -12.644531 18.160156 -8.9375 C 22.945312 -5.488281 24.488281 -3.054688 23.335938 0 C 22.179688 3.050781 18.839844 3.566406 15.425781 2.277344 C 11.773438 0.894531 9.453125 -1.832031 10.355469 -6.757812 L 4.96875 -8.796875 C 3.210938 -1.25 7.046875 3.625 13.570312 6.089844 C 20.277344 8.628906 26.496094 7.558594 28.761719 1.570312 C 30.800781 -3.816406 28.414062 -8.003906 21.835938 -12.679688 C 17.957031 -15.449219 15.796875 -17.703125 16.996094 -20.875 C 18.039062 -23.628906 20.460938 -24.96875 24.054688 -23.613281 C 27.765625 -22.207031 29.203125 -19.132812 28.515625 -15.148438 L 33.90625 -13.113281 C 35.441406 -19.167969 33.089844 -24.710938 25.96875 -27.40625 Z M 25.96875 -27.40625 "/></g></g></g><g fill="#fff8e7" fill-opacity="1"><g transform="translate(475.643637, 91.388257)"><g><path d="M 22.628906 8.558594 L 27.777344 10.507812 C 28.636719 6.792969 29.332031 4.59375 30.234375 2.199219 L 34.742188 -9.714844 C 35.261719 -11.09375 35.792969 -12.671875 36.148438 -13.972656 C 37.578125 -19.386719 35.605469 -23.757812 28.0625 -26.613281 C 21.058594 -29.261719 14.855469 -27.160156 11.820312 -20.574219 L 17.207031 -18.539062 C 19.21875 -22.773438 22.257812 -24.292969 26.566406 -22.660156 C 30.820312 -21.054688 31.769531 -18.503906 30.898438 -15.480469 C 30.566406 -14.238281 30.089844 -12.980469 29.570312 -11.601562 L 29.253906 -10.765625 L 27.21875 -11.535156 C 14.765625 -16.246094 7.972656 -14.570312 5.257812 -7.386719 C 3.039062 -1.519531 6.328125 3.351562 12.074219 5.523438 C 15.128906 6.679688 18.0625 7.242188 20.785156 6.5625 L 23.8125 3.804688 Z M 15.304688 2.230469 C 11.414062 0.757812 9.59375 -1.847656 11.042969 -5.675781 C 13.105469 -11.125 19.3125 -10.898438 27.804688 -6.933594 L 26.582031 -3.699219 C 24.410156 2.046875 20.09375 4.042969 15.304688 2.230469 Z M 15.304688 2.230469 "/></g></g></g><g fill="#fff8e7" fill-opacity="1"><g transform="translate(507.428134, 103.409708)"><g><path d="M 21.011719 -23.53125 L 26.9375 -21.289062 L 28.433594 -25.242188 L 22.507812 -27.480469 L 25.292969 -34.84375 L 20.144531 -36.792969 L 17.359375 -29.429688 L 13.105469 -31.035156 L 11.613281 -27.085938 L 15.863281 -25.476562 L 8.867188 -6.980469 C 8.1875 -5.183594 7.6875 -3.867188 7.433594 -3.003906 C 6.238281 1.058594 7.660156 3.445312 11.613281 4.941406 C 13.050781 5.484375 14.507812 5.964844 16.097656 6.292969 L 17.523438 2.523438 C 13.332031 1.484375 12.320312 0.347656 13.238281 -2.792969 C 13.496094 -3.65625 13.699219 -4.195312 14.105469 -5.273438 Z M 21.011719 -23.53125 "/></g></g></g><g fill="#fff8e7" fill-opacity="1"><g transform="translate(526.163642, 110.495804)"><g><path d="M 22.945312 -39.496094 C 21.089844 -40.199219 19.109375 -39.304688 18.40625 -37.449219 C 17.703125 -35.59375 18.597656 -33.613281 20.453125 -32.910156 C 22.308594 -32.210938 24.289062 -33.101562 24.992188 -34.957031 C 25.695312 -36.816406 24.800781 -38.792969 22.945312 -39.496094 Z M 9.578125 3.621094 L 21.578125 -28.105469 L 16.429688 -30.054688 L 4.429688 1.675781 Z M 9.578125 3.621094 "/></g></g></g><g fill="#fff8e7" fill-opacity="1"><g transform="translate(29.914161, 18.225838)"><g><path d="M 34.738281 -35.035156 C 27.136719 -37.910156 19.269531 -35.753906 16.578125 -28.628906 C 13.996094 -21.804688 17.972656 -16.945312 24.644531 -12.507812 C 31.253906 -8.09375 33.265625 -4.730469 31.363281 0.296875 C 29.734375 4.609375 24.929688 5.734375 20.199219 3.945312 C 14.8125 1.90625 12.195312 -2.574219 13.058594 -8.472656 L 7.550781 -10.554688 C 5.4375 -2.253906 9.441406 4.527344 18.539062 7.96875 C 26.503906 10.980469 34.496094 8.667969 37.234375 1.421875 C 39.882812 -5.582031 36.738281 -11.011719 28.429688 -16.550781 C 22.6875 -20.363281 20.839844 -23.253906 22.535156 -27.742188 C 24.167969 -32.054688 28.410156 -32.777344 32.78125 -31.125 C 37.988281 -29.152344 39.910156 -25.003906 38.417969 -19.617188 L 43.925781 -17.53125 C 45.820312 -24.890625 43.300781 -31.796875 34.738281 -35.035156 Z M 34.738281 -35.035156 "/></g></g></g><g fill="#fff8e7" fill-opacity="1"><g transform="translate(64.930999, 31.469817)"><g><path d="M 21.011719 -23.53125 L 26.9375 -21.289062 L 28.433594 -25.242188 L 22.507812 -27.480469 L 25.292969 -34.84375 L 20.144531 -36.792969 L 17.359375 -29.429688 L 13.105469 -31.035156 L 11.613281 -27.085938 L 15.863281 -25.476562 L 8.867188 -6.980469 C 8.1875 -5.183594 7.6875 -3.867188 7.433594 -3.003906 C 6.238281 1.058594 7.660156 3.445312 11.613281 4.941406 C 13.050781 5.484375 14.507812 5.964844 16.097656 6.292969 L 17.523438 2.523438 C 13.332031 1.484375 12.320312 0.347656 13.238281 -2.792969 C 13.496094 -3.65625 13.699219 -4.195312 14.105469 -5.273438 Z M 21.011719 -23.53125 "/></g></g></g><g fill="#fff8e7" fill-opacity="1"><g transform="translate(83.666507, 38.555912)"><g><path d="M 22.628906 8.558594 L 27.777344 10.507812 C 28.636719 6.792969 29.332031 4.59375 30.234375 2.199219 L 34.742188 -9.714844 C 35.261719 -11.09375 35.792969 -12.671875 36.148438 -13.972656 C 37.578125 -19.386719 35.605469 -23.757812 28.0625 -26.613281 C 21.058594 -29.261719 14.855469 -27.160156 11.820312 -20.574219 L 17.207031 -18.539062 C 19.21875 -22.773438 22.257812 -24.292969 26.566406 -22.660156 C 30.820312 -21.054688 31.769531 -18.503906 30.898438 -15.480469 C 30.566406 -14.238281 30.089844 -12.980469 29.570312 -11.601562 L 29.253906 -10.765625 L 27.21875 -11.535156 C 14.765625 -16.246094 7.972656 -14.570312 5.257812 -7.386719 C 3.039062 -1.519531 6.328125 3.351562 12.074219 5.523438 C 15.128906 6.679688 18.0625 7.242188 20.785156 6.5625 L 23.8125 3.804688 Z M 15.304688 2.230469 C 11.414062 0.757812 9.59375 -1.847656 11.042969 -5.675781 C 13.105469 -11.125 19.3125 -10.898438 27.804688 -6.933594 L 26.582031 -3.699219 C 24.410156 2.046875 20.09375 4.042969 15.304688 2.230469 Z M 15.304688 2.230469 "/></g></g></g><g fill="#fff8e7" fill-opacity="1"><g transform="translate(115.451015, 50.577368)"><g><path d="M 29.15625 -26.0625 C 27.65625 -26.628906 25.835938 -26.699219 24.179688 -26.300781 L 19.699219 -23.136719 L 21.578125 -28.105469 L 16.429688 -30.054688 L 4.429688 1.675781 L 9.578125 3.621094 L 16.417969 -14.457031 C 19.15625 -21.699219 24.425781 -23.332031 29.679688 -20.9375 L 31.152344 -24.828125 C 30.664062 -25.355469 29.992188 -25.746094 29.15625 -26.0625 Z M 29.15625 -26.0625 "/></g></g></g><g fill="#fff8e7" fill-opacity="1"><g transform="translate(135.204104, 58.048331)"><g><path d="M 21.011719 -23.53125 L 26.9375 -21.289062 L 28.433594 -25.242188 L 22.507812 -27.480469 L 25.292969 -34.84375 L 20.144531 -36.792969 L 17.359375 -29.429688 L 13.105469 -31.035156 L 11.613281 -27.085938 L 15.863281 -25.476562 L 8.867188 -6.980469 C 8.1875 -5.183594 7.6875 -3.867188 7.433594 -3.003906 C 6.238281 1.058594 7.660156 3.445312 11.613281 4.941406 C 13.050781 5.484375 14.507812 5.964844 16.097656 6.292969 L 17.523438 2.523438 C 13.332031 1.484375 12.320312 0.347656 13.238281 -2.792969 C 13.496094 -3.65625 13.699219 -4.195312 14.105469 -5.273438 Z M 21.011719 -23.53125 "/></g></g></g><g fill="#fff8e7" fill-opacity="1"><g transform="translate(153.939612, 65.134426)"><g/></g></g><g fill="#fff8e7" fill-opacity="1"><g transform="translate(166.86891, 70.024512)"><g><path d="M 4.691406 15.460938 L 27.332031 -44.40625 L 23.859375 -45.71875 L 1.21875 14.148438 Z M 4.691406 15.460938 "/></g></g></g><g fill="#fff8e7" fill-opacity="1"><g transform="translate(181.833373, 75.684333)"><g/></g></g><g fill="#fff8e7" fill-opacity="1"><g transform="translate(194.762671, 80.574419)"><g><path d="M 72.195312 -19.910156 L 66.75 -21.972656 L 43.6875 11.324219 L 48.023438 -28.367188 L 41.078125 -30.996094 L 17.847656 1.480469 L 23.046875 -38.5 L 17.179688 -40.71875 L 12.453125 4.710938 L 19.277344 7.289062 L 42.449219 -24.660156 L 38.3125 14.492188 L 45.078125 17.050781 Z M 72.195312 -19.910156 "/></g></g></g><g fill="#fff8e7" fill-opacity="1"><g transform="translate(251.747346, 102.127017)"><g><path d="M 39.9375 -11.515625 C 41.566406 -17.261719 39.078125 -22.445312 32.132812 -25.074219 C 28.902344 -26.296875 26.363281 -26.640625 22.875 -25.5625 L 19.519531 -22.660156 L 26.335938 -40.679688 L 21.183594 -42.625 L 4.429688 1.675781 L 9.578125 3.621094 L 14.855469 -10.324219 C 18.953125 -21.160156 24.5 -23.167969 29.515625 -21.410156 C 34.46875 -19.671875 35.417969 -16.027344 34.3125 -12.203125 C 33.824219 -10.542969 33.324219 -9.226562 32.714844 -7.609375 L 26.101562 9.871094 L 31.25 11.820312 L 37.996094 -6.019531 C 38.972656 -8.59375 39.445312 -9.851562 39.9375 -11.515625 Z M 39.9375 -11.515625 "/></g></g></g><g fill="#fff8e7" fill-opacity="1"><g transform="translate(287.243031, 115.552104)"><g><path d="M 36.8125 -5.238281 C 40.320312 -14.515625 37.941406 -22.875 29.199219 -26.183594 C 20.519531 -29.464844 11.644531 -25.363281 7.75 -15.066406 C 3.515625 -3.871094 7.644531 3.847656 15.90625 6.972656 C 22.433594 9.441406 29.769531 8.316406 33.925781 1.128906 L 28.535156 -0.910156 C 26.097656 3.371094 21.769531 4.675781 17.640625 3.113281 C 12.972656 1.347656 10.085938 -2.960938 12.773438 -11.523438 L 35.765625 -2.828125 C 36.3125 -3.921875 36.628906 -4.757812 36.8125 -5.238281 Z M 27.585938 -22.277344 C 32.792969 -20.304688 34.179688 -15.46875 32.167969 -8.703125 L 14.328125 -15.453125 C 17.488281 -21.988281 22.558594 -24.179688 27.585938 -22.277344 Z M 27.585938 -22.277344 "/></g></g></g><g fill="#fff8e7" fill-opacity="1"><g transform="translate(320.104979, 127.981066)"><g><path d="M 29.15625 -26.0625 C 27.65625 -26.628906 25.835938 -26.699219 24.179688 -26.300781 L 19.699219 -23.136719 L 21.578125 -28.105469 L 16.429688 -30.054688 L 4.429688 1.675781 L 9.578125 3.621094 L 16.417969 -14.457031 C 19.15625 -21.699219 24.425781 -23.332031 29.679688 -20.9375 L 31.152344 -24.828125 C 30.664062 -25.355469 29.992188 -25.746094 29.15625 -26.0625 Z M 29.15625 -26.0625 "/></g></g></g><g fill="#fff8e7" fill-opacity="1"><g transform="translate(339.858079, 135.452033)"><g><path d="M 36.8125 -5.238281 C 40.320312 -14.515625 37.941406 -22.875 29.199219 -26.183594 C 20.519531 -29.464844 11.644531 -25.363281 7.75 -15.066406 C 3.515625 -3.871094 7.644531 3.847656 15.90625 6.972656 C 22.433594 9.441406 29.769531 8.316406 33.925781 1.128906 L 28.535156 -0.910156 C 26.097656 3.371094 21.769531 4.675781 17.640625 3.113281 C 12.972656 1.347656 10.085938 -2.960938 12.773438 -11.523438 L 35.765625 -2.828125 C 36.3125 -3.921875 36.628906 -4.757812 36.8125 -5.238281 Z M 27.585938 -22.277344 C 32.792969 -20.304688 34.179688 -15.46875 32.167969 -8.703125 L 14.328125 -15.453125 C 17.488281 -21.988281 22.558594 -24.179688 27.585938 -22.277344 Z M 27.585938 -22.277344 "/></g></g></g><g fill="#fff8e7" fill-opacity="1"><g transform="translate(-1.658954, 101.704577)"><g><path d="M 38.269531 -33.699219 C 26.535156 -38.136719 15.3125 -31.980469 10.558594 -19.410156 C 5.984375 -7.316406 9.203125 4.4375 21.234375 8.988281 C 32.128906 13.109375 40.167969 8.691406 43.773438 1.5 L 44.0625 0.925781 L 38.914062 -1.023438 L 38.566406 -0.46875 C 35.128906 5.003906 29.957031 7.636719 23.074219 5.03125 C 14.933594 1.953125 12.546875 -7.296875 16.394531 -17.476562 C 20.175781 -27.472656 28.167969 -32.867188 36.609375 -29.675781 C 43.496094 -27.070312 45.628906 -21.679688 44.585938 -15.300781 L 44.480469 -14.65625 L 49.628906 -12.707031 L 49.792969 -13.328125 C 52.011719 -21.726562 48.746094 -29.738281 38.269531 -33.699219 Z M 38.269531 -33.699219 "/></g></g></g><g fill="#fff8e7" fill-opacity="1"><g transform="translate(40.181676, 117.529433)"><g><path d="M 29.859375 -25.933594 C 19.082031 -30.007812 11.191406 -24.164062 7.796875 -15.183594 C 4.421875 -6.265625 6.449219 3.398438 17.222656 7.472656 C 28 11.546875 35.914062 5.644531 39.285156 -3.273438 C 42.683594 -12.253906 40.632812 -21.855469 29.859375 -25.933594 Z M 18.71875 3.519531 C 12.3125 1.097656 10.617188 -5.632812 13.421875 -13.058594 C 16.253906 -20.539062 21.957031 -24.40625 28.363281 -21.980469 C 34.769531 -19.558594 36.488281 -12.886719 33.660156 -5.402344 C 30.851562 2.019531 25.125 5.945312 18.71875 3.519531 Z M 18.71875 3.519531 "/></g></g></g><g fill="#fff8e7" fill-opacity="1"><g transform="translate(75.258372, 130.796052)"><g><path d="M 39.9375 -11.515625 C 41.566406 -17.261719 39.078125 -22.445312 32.132812 -25.074219 C 28.902344 -26.296875 26.363281 -26.640625 22.875 -25.5625 L 19.519531 -22.660156 L 21.578125 -28.105469 L 16.429688 -30.054688 L 4.429688 1.675781 L 9.578125 3.621094 L 14.855469 -10.324219 C 18.953125 -21.160156 24.546875 -23.289062 29.515625 -21.410156 C 34.425781 -19.550781 35.417969 -16.027344 34.3125 -12.203125 C 33.824219 -10.542969 33.324219 -9.226562 32.714844 -7.609375 L 26.101562 9.871094 L 31.25 11.820312 L 37.996094 -6.019531 C 38.972656 -8.59375 39.445312 -9.851562 39.9375 -11.515625 Z M 39.9375 -11.515625 "/></g></g></g><g fill="#fff8e7" fill-opacity="1"><g transform="translate(110.754068, 144.221143)"><g><path d="M 42.414062 -20.226562 L 36.964844 -22.289062 L 16.871094 2.070312 L 17.746094 -29.554688 L 12.058594 -31.707031 L 12.09375 4.574219 L 18.378906 6.953125 Z M 42.414062 -20.226562 "/></g></g></g><g fill="#fff8e7" fill-opacity="1"><g transform="translate(141.520994, 155.857731)"><g><path d="M 36.8125 -5.238281 C 40.320312 -14.515625 37.941406 -22.875 29.199219 -26.183594 C 20.519531 -29.464844 11.644531 -25.363281 7.75 -15.066406 C 3.515625 -3.871094 7.644531 3.847656 15.90625 6.972656 C 22.433594 9.441406 29.769531 8.316406 33.925781 1.128906 L 28.535156 -0.910156 C 26.097656 3.371094 21.769531 4.675781 17.640625 3.113281 C 12.972656 1.347656 10.085938 -2.960938 12.773438 -11.523438 L 35.765625 -2.828125 C 36.3125 -3.921875 36.628906 -4.757812 36.8125 -5.238281 Z M 27.585938 -22.277344 C 32.792969 -20.304688 34.179688 -15.46875 32.167969 -8.703125 L 14.328125 -15.453125 C 17.488281 -21.988281 22.558594 -24.179688 27.585938 -22.277344 Z M 27.585938 -22.277344 "/></g></g></g><g fill="#fff8e7" fill-opacity="1"><g transform="translate(174.382942, 168.286693)"><g><path d="M 29.15625 -26.0625 C 27.65625 -26.628906 25.835938 -26.699219 24.179688 -26.300781 L 19.699219 -23.136719 L 21.578125 -28.105469 L 16.429688 -30.054688 L 4.429688 1.675781 L 9.578125 3.621094 L 16.417969 -14.457031 C 19.15625 -21.699219 24.425781 -23.332031 29.679688 -20.9375 L 31.152344 -24.828125 C 30.664062 -25.355469 29.992188 -25.746094 29.15625 -26.0625 Z M 29.15625 -26.0625 "/></g></g></g><g fill="#fff8e7" fill-opacity="1"><g transform="translate(194.136021, 175.757652)"><g><path d="M 25.96875 -27.40625 C 19.441406 -29.871094 13.699219 -28.074219 11.5 -22.269531 C 9.394531 -16.703125 13.0625 -12.644531 18.160156 -8.9375 C 22.945312 -5.488281 24.488281 -3.054688 23.335938 0 C 22.179688 3.050781 18.839844 3.566406 15.425781 2.277344 C 11.773438 0.894531 9.453125 -1.832031 10.355469 -6.757812 L 4.96875 -8.796875 C 3.210938 -1.25 7.046875 3.625 13.570312 6.089844 C 20.277344 8.628906 26.496094 7.558594 28.761719 1.570312 C 30.800781 -3.816406 28.414062 -8.003906 21.835938 -12.679688 C 17.957031 -15.449219 15.796875 -17.703125 16.996094 -20.875 C 18.039062 -23.628906 20.460938 -24.96875 24.054688 -23.613281 C 27.765625 -22.207031 29.203125 -19.132812 28.515625 -15.148438 L 33.90625 -13.113281 C 35.441406 -19.167969 33.089844 -24.710938 25.96875 -27.40625 Z M 25.96875 -27.40625 "/></g></g></g><g fill="#fff8e7" fill-opacity="1"><g transform="translate(221.61076, 186.149077)"><g><path d="M 22.628906 8.558594 L 27.777344 10.507812 C 28.636719 6.792969 29.332031 4.59375 30.234375 2.199219 L 34.742188 -9.714844 C 35.261719 -11.09375 35.792969 -12.671875 36.148438 -13.972656 C 37.578125 -19.386719 35.605469 -23.757812 28.0625 -26.613281 C 21.058594 -29.261719 14.855469 -27.160156 11.820312 -20.574219 L 17.207031 -18.539062 C 19.21875 -22.773438 22.257812 -24.292969 26.566406 -22.660156 C 30.820312 -21.054688 31.769531 -18.503906 30.898438 -15.480469 C 30.566406 -14.238281 30.089844 -12.980469 29.570312 -11.601562 L 29.253906 -10.765625 L 27.21875 -11.535156 C 14.765625 -16.246094 7.972656 -14.570312 5.257812 -7.386719 C 3.039062 -1.519531 6.328125 3.351562 12.074219 5.523438 C 15.128906 6.679688 18.0625 7.242188 20.785156 6.5625 L 23.8125 3.804688 Z M 15.304688 2.230469 C 11.414062 0.757812 9.59375 -1.847656 11.042969 -5.675781 C 13.105469 -11.125 19.3125 -10.898438 27.804688 -6.933594 L 26.582031 -3.699219 C 24.410156 2.046875 20.09375 4.042969 15.304688 2.230469 Z M 15.304688 2.230469 "/></g></g></g><g fill="#fff8e7" fill-opacity="1"><g transform="translate(253.395258, 198.170529)"><g><path d="M 21.011719 -23.53125 L 26.9375 -21.289062 L 28.433594 -25.242188 L 22.507812 -27.480469 L 25.292969 -34.84375 L 20.144531 -36.792969 L 17.359375 -29.429688 L 13.105469 -31.035156 L 11.613281 -27.085938 L 15.863281 -25.476562 L 8.867188 -6.980469 C 8.1875 -5.183594 7.6875 -3.867188 7.433594 -3.003906 C 6.238281 1.058594 7.660156 3.445312 11.613281 4.941406 C 13.050781 5.484375 14.507812 5.964844 16.097656 6.292969 L 17.523438 2.523438 C 13.332031 1.484375 12.320312 0.347656 13.238281 -2.792969 C 13.496094 -3.65625 13.699219 -4.195312 14.105469 -5.273438 Z M 21.011719 -23.53125 "/></g></g></g><g fill="#fff8e7" fill-opacity="1"><g transform="translate(272.130765, 205.256624)"><g><path d="M 22.945312 -39.496094 C 21.089844 -40.199219 19.109375 -39.304688 18.40625 -37.449219 C 17.703125 -35.59375 18.597656 -33.613281 20.453125 -32.910156 C 22.308594 -32.210938 24.289062 -33.101562 24.992188 -34.957031 C 25.695312 -36.816406 24.800781 -38.792969 22.945312 -39.496094 Z M 9.578125 3.621094 L 21.578125 -28.105469 L 16.429688 -30.054688 L 4.429688 1.675781 Z M 9.578125 3.621094 "/></g></g></g><g fill="#fff8e7" fill-opacity="1"><g transform="translate(286.376942, 210.644777)"><g><path d="M 29.859375 -25.933594 C 19.082031 -30.007812 11.191406 -24.164062 7.796875 -15.183594 C 4.421875 -6.265625 6.449219 3.398438 17.222656 7.472656 C 28 11.546875 35.914062 5.644531 39.285156 -3.273438 C 42.683594 -12.253906 40.632812 -21.855469 29.859375 -25.933594 Z M 18.71875 3.519531 C 12.3125 1.097656 10.617188 -5.632812 13.421875 -13.058594 C 16.253906 -20.539062 21.957031 -24.40625 28.363281 -21.980469 C 34.769531 -19.558594 36.488281 -12.886719 33.660156 -5.402344 C 30.851562 2.019531 25.125 5.945312 18.71875 3.519531 Z M 18.71875 3.519531 "/></g></g></g><g fill="#fff8e7" fill-opacity="1"><g transform="translate(321.453627, 223.911391)"><g><path d="M 39.9375 -11.515625 C 41.566406 -17.261719 39.078125 -22.445312 32.132812 -25.074219 C 28.902344 -26.296875 26.363281 -26.640625 22.875 -25.5625 L 19.519531 -22.660156 L 21.578125 -28.105469 L 16.429688 -30.054688 L 4.429688 1.675781 L 9.578125 3.621094 L 14.855469 -10.324219 C 18.953125 -21.160156 24.546875 -23.289062 29.515625 -21.410156 C 34.425781 -19.550781 35.417969 -16.027344 34.3125 -12.203125 C 33.824219 -10.542969 33.324219 -9.226562 32.714844 -7.609375 L 26.101562 9.871094 L 31.25 11.820312 L 37.996094 -6.019531 C 38.972656 -8.59375 39.445312 -9.851562 39.9375 -11.515625 Z M 39.9375 -11.515625 "/></g></g></g><g fill="#fff8e7" fill-opacity="1"><g transform="translate(356.949311, 237.336478)"><g><path d="M 25.96875 -27.40625 C 19.441406 -29.871094 13.699219 -28.074219 11.5 -22.269531 C 9.394531 -16.703125 13.0625 -12.644531 18.160156 -8.9375 C 22.945312 -5.488281 24.488281 -3.054688 23.335938 0 C 22.179688 3.050781 18.839844 3.566406 15.425781 2.277344 C 11.773438 0.894531 9.453125 -1.832031 10.355469 -6.757812 L 4.96875 -8.796875 C 3.210938 -1.25 7.046875 3.625 13.570312 6.089844 C 20.277344 8.628906 26.496094 7.558594 28.761719 1.570312 C 30.800781 -3.816406 28.414062 -8.003906 21.835938 -12.679688 C 17.957031 -15.449219 15.796875 -17.703125 16.996094 -20.875 C 18.039062 -23.628906 20.460938 -24.96875 24.054688 -23.613281 C 27.765625 -22.207031 29.203125 -19.132812 28.515625 -15.148438 L 33.90625 -13.113281 C 35.441406 -19.167969 33.089844 -24.710938 25.96875 -27.40625 Z M 25.96875 -27.40625 "/></g></g></g><g fill="#fff8e7" fill-opacity="1"><g transform="translate(384.42405, 247.727903)"><g/></g></g><g fill="#fff8e7" fill-opacity="1"><g transform="translate(397.353369, 252.617997)"><g><path d="M 34.738281 -35.035156 C 27.136719 -37.910156 19.269531 -35.753906 16.578125 -28.628906 C 13.996094 -21.804688 17.972656 -16.945312 24.644531 -12.507812 C 31.253906 -8.09375 33.265625 -4.730469 31.363281 0.296875 C 29.734375 4.609375 24.929688 5.734375 20.199219 3.945312 C 14.8125 1.90625 12.195312 -2.574219 13.058594 -8.472656 L 7.550781 -10.554688 C 5.4375 -2.253906 9.441406 4.527344 18.539062 7.96875 C 26.503906 10.980469 34.496094 8.667969 37.234375 1.421875 C 39.882812 -5.582031 36.738281 -11.011719 28.429688 -16.550781 C 22.6875 -20.363281 20.839844 -23.253906 22.535156 -27.742188 C 24.167969 -32.054688 28.410156 -32.777344 32.78125 -31.125 C 37.988281 -29.152344 39.910156 -25.003906 38.417969 -19.617188 L 43.925781 -17.53125 C 45.820312 -24.890625 43.300781 -31.796875 34.738281 -35.035156 Z M 34.738281 -35.035156 "/></g></g></g><g fill="#fff8e7" fill-opacity="1"><g transform="translate(432.370197, 265.861972)"><g><path d="M 21.011719 -23.53125 L 26.9375 -21.289062 L 28.433594 -25.242188 L 22.507812 -27.480469 L 25.292969 -34.84375 L 20.144531 -36.792969 L 17.359375 -29.429688 L 13.105469 -31.035156 L 11.613281 -27.085938 L 15.863281 -25.476562 L 8.867188 -6.980469 C 8.1875 -5.183594 7.6875 -3.867188 7.433594 -3.003906 C 6.238281 1.058594 7.660156 3.445312 11.613281 4.941406 C 13.050781 5.484375 14.507812 5.964844 16.097656 6.292969 L 17.523438 2.523438 C 13.332031 1.484375 12.320312 0.347656 13.238281 -2.792969 C 13.496094 -3.65625 13.699219 -4.195312 14.105469 -5.273438 Z M 21.011719 -23.53125 "/></g></g></g><g fill="#fff8e7" fill-opacity="1"><g transform="translate(451.105704, 272.948068)"><g><path d="M 22.628906 8.558594 L 27.777344 10.507812 C 28.636719 6.792969 29.332031 4.59375 30.234375 2.199219 L 34.742188 -9.714844 C 35.261719 -11.09375 35.792969 -12.671875 36.148438 -13.972656 C 37.578125 -19.386719 35.605469 -23.757812 28.0625 -26.613281 C 21.058594 -29.261719 14.855469 -27.160156 11.820312 -20.574219 L 17.207031 -18.539062 C 19.21875 -22.773438 22.257812 -24.292969 26.566406 -22.660156 C 30.820312 -21.054688 31.769531 -18.503906 30.898438 -15.480469 C 30.566406 -14.238281 30.089844 -12.980469 29.570312 -11.601562 L 29.253906 -10.765625 L 27.21875 -11.535156 C 14.765625 -16.246094 7.972656 -14.570312 5.257812 -7.386719 C 3.039062 -1.519531 6.328125 3.351562 12.074219 5.523438 C 15.128906 6.679688 18.0625 7.242188 20.785156 6.5625 L 23.8125 3.804688 Z M 15.304688 2.230469 C 11.414062 0.757812 9.59375 -1.847656 11.042969 -5.675781 C 13.105469 -11.125 19.3125 -10.898438 27.804688 -6.933594 L 26.582031 -3.699219 C 24.410156 2.046875 20.09375 4.042969 15.304688 2.230469 Z M 15.304688 2.230469 "/></g></g></g><g fill="#fff8e7" fill-opacity="1"><g transform="translate(482.890202, 284.969519)"><g><path d="M 29.15625 -26.0625 C 27.65625 -26.628906 25.835938 -26.699219 24.179688 -26.300781 L 19.699219 -23.136719 L 21.578125 -28.105469 L 16.429688 -30.054688 L 4.429688 1.675781 L 9.578125 3.621094 L 16.417969 -14.457031 C 19.15625 -21.699219 24.425781 -23.332031 29.679688 -20.9375 L 31.152344 -24.828125 C 30.664062 -25.355469 29.992188 -25.746094 29.15625 -26.0625 Z M 29.15625 -26.0625 "/></g></g></g><g fill="#fff8e7" fill-opacity="1"><g transform="translate(502.643281, 292.440478)"><g><path d="M 21.011719 -23.53125 L 26.9375 -21.289062 L 28.433594 -25.242188 L 22.507812 -27.480469 L 25.292969 -34.84375 L 20.144531 -36.792969 L 17.359375 -29.429688 L 13.105469 -31.035156 L 11.613281 -27.085938 L 15.863281 -25.476562 L 8.867188 -6.980469 C 8.1875 -5.183594 7.6875 -3.867188 7.433594 -3.003906 C 6.238281 1.058594 7.660156 3.445312 11.613281 4.941406 C 13.050781 5.484375 14.507812 5.964844 16.097656 6.292969 L 17.523438 2.523438 C 13.332031 1.484375 12.320312 0.347656 13.238281 -2.792969 C 13.496094 -3.65625 13.699219 -4.195312 14.105469 -5.273438 Z M 21.011719 -23.53125 "/></g></g></g><g fill="#fff8e7" fill-opacity="1"><g transform="translate(521.378788, 299.526574)"><g/></g></g><g fill="#fff8e7" fill-opacity="1"><g transform="translate(534.308108, 304.416668)"><g><path d="M 4.691406 15.460938 L 27.332031 -44.40625 L 23.859375 -45.71875 L 1.21875 14.148438 Z M 4.691406 15.460938 "/></g></g></g><g fill="#fff8e7" fill-opacity="1"><g transform="translate(-33.232069, 185.183317)"><g><path d="M 72.195312 -19.910156 L 66.75 -21.972656 L 43.6875 11.324219 L 48.023438 -28.367188 L 41.078125 -30.996094 L 17.847656 1.480469 L 23.046875 -38.5 L 17.179688 -40.71875 L 12.453125 4.710938 L 19.277344 7.289062 L 42.449219 -24.660156 L 38.3125 14.492188 L 45.078125 17.050781 Z M 72.195312 -19.910156 "/></g></g></g><g fill="#fff8e7" fill-opacity="1"><g transform="translate(23.752595, 206.735911)"><g><path d="M 39.9375 -11.515625 C 41.566406 -17.261719 39.078125 -22.445312 32.132812 -25.074219 C 28.902344 -26.296875 26.363281 -26.640625 22.875 -25.5625 L 19.519531 -22.660156 L 26.335938 -40.679688 L 21.183594 -42.625 L 4.429688 1.675781 L 9.578125 3.621094 L 14.855469 -10.324219 C 18.953125 -21.160156 24.5 -23.167969 29.515625 -21.410156 C 34.46875 -19.671875 35.417969 -16.027344 34.3125 -12.203125 C 33.824219 -10.542969 33.324219 -9.226562 32.714844 -7.609375 L 26.101562 9.871094 L 31.25 11.820312 L 37.996094 -6.019531 C 38.972656 -8.59375 39.445312 -9.851562 39.9375 -11.515625 Z M 39.9375 -11.515625 "/></g></g></g><g fill="#fff8e7" fill-opacity="1"><g transform="translate(59.248291, 220.161002)"><g><path d="M 36.8125 -5.238281 C 40.320312 -14.515625 37.941406 -22.875 29.199219 -26.183594 C 20.519531 -29.464844 11.644531 -25.363281 7.75 -15.066406 C 3.515625 -3.871094 7.644531 3.847656 15.90625 6.972656 C 22.433594 9.441406 29.769531 8.316406 33.925781 1.128906 L 28.535156 -0.910156 C 26.097656 3.371094 21.769531 4.675781 17.640625 3.113281 C 12.972656 1.347656 10.085938 -2.960938 12.773438 -11.523438 L 35.765625 -2.828125 C 36.3125 -3.921875 36.628906 -4.757812 36.8125 -5.238281 Z M 27.585938 -22.277344 C 32.792969 -20.304688 34.179688 -15.46875 32.167969 -8.703125 L 14.328125 -15.453125 C 17.488281 -21.988281 22.558594 -24.179688 27.585938 -22.277344 Z M 27.585938 -22.277344 "/></g></g></g><g fill="#fff8e7" fill-opacity="1"><g transform="translate(92.11024, 232.589964)"><g><path d="M 29.15625 -26.0625 C 27.65625 -26.628906 25.835938 -26.699219 24.179688 -26.300781 L 19.699219 -23.136719 L 21.578125 -28.105469 L 16.429688 -30.054688 L 4.429688 1.675781 L 9.578125 3.621094 L 16.417969 -14.457031 C 19.15625 -21.699219 24.425781 -23.332031 29.679688 -20.9375 L 31.152344 -24.828125 C 30.664062 -25.355469 29.992188 -25.746094 29.15625 -26.0625 Z M 29.15625 -26.0625 "/></g></g></g><g fill="#fff8e7" fill-opacity="1"><g transform="translate(111.863329, 240.060927)"><g><path d="M 36.8125 -5.238281 C 40.320312 -14.515625 37.941406 -22.875 29.199219 -26.183594 C 20.519531 -29.464844 11.644531 -25.363281 7.75 -15.066406 C 3.515625 -3.871094 7.644531 3.847656 15.90625 6.972656 C 22.433594 9.441406 29.769531 8.316406 33.925781 1.128906 L 28.535156 -0.910156 C 26.097656 3.371094 21.769531 4.675781 17.640625 3.113281 C 12.972656 1.347656 10.085938 -2.960938 12.773438 -11.523438 L 35.765625 -2.828125 C 36.3125 -3.921875 36.628906 -4.757812 36.8125 -5.238281 Z M 27.585938 -22.277344 C 32.792969 -20.304688 34.179688 -15.46875 32.167969 -8.703125 L 14.328125 -15.453125 C 17.488281 -21.988281 22.558594 -24.179688 27.585938 -22.277344 Z M 27.585938 -22.277344 "/></g></g></g><g fill="#fff8e7" fill-opacity="1"><g transform="translate(144.725277, 252.489889)"><g/></g></g><g fill="#fff8e7" fill-opacity="1"><g transform="translate(157.654575, 257.379975)"><g><path d="M 38.269531 -33.699219 C 26.535156 -38.136719 15.3125 -31.980469 10.558594 -19.410156 C 5.984375 -7.316406 9.203125 4.4375 21.234375 8.988281 C 32.128906 13.109375 40.167969 8.691406 43.773438 1.5 L 44.0625 0.925781 L 38.914062 -1.023438 L 38.566406 -0.46875 C 35.128906 5.003906 29.957031 7.636719 23.074219 5.03125 C 14.933594 1.953125 12.546875 -7.296875 16.394531 -17.476562 C 20.175781 -27.472656 28.167969 -32.867188 36.609375 -29.675781 C 43.496094 -27.070312 45.628906 -21.679688 44.585938 -15.300781 L 44.480469 -14.65625 L 49.628906 -12.707031 L 49.792969 -13.328125 C 52.011719 -21.726562 48.746094 -29.738281 38.269531 -33.699219 Z M 38.269531 -33.699219 "/></g></g></g><g fill="#fff8e7" fill-opacity="1"><g transform="translate(199.495205, 273.204831)"><g><path d="M 29.859375 -25.933594 C 19.082031 -30.007812 11.191406 -24.164062 7.796875 -15.183594 C 4.421875 -6.265625 6.449219 3.398438 17.222656 7.472656 C 28 11.546875 35.914062 5.644531 39.285156 -3.273438 C 42.683594 -12.253906 40.632812 -21.855469 29.859375 -25.933594 Z M 18.71875 3.519531 C 12.3125 1.097656 10.617188 -5.632812 13.421875 -13.058594 C 16.253906 -20.539062 21.957031 -24.40625 28.363281 -21.980469 C 34.769531 -19.558594 36.488281 -12.886719 33.660156 -5.402344 C 30.851562 2.019531 25.125 5.945312 18.71875 3.519531 Z M 18.71875 3.519531 "/></g></g></g><g fill="#fff8e7" fill-opacity="1"><g transform="translate(234.57189, 286.471445)"><g><path d="M 39.9375 -11.515625 C 41.566406 -17.261719 39.078125 -22.445312 32.132812 -25.074219 C 28.902344 -26.296875 26.363281 -26.640625 22.875 -25.5625 L 19.519531 -22.660156 L 21.578125 -28.105469 L 16.429688 -30.054688 L 4.429688 1.675781 L 9.578125 3.621094 L 14.855469 -10.324219 C 18.953125 -21.160156 24.546875 -23.289062 29.515625 -21.410156 C 34.425781 -19.550781 35.417969 -16.027344 34.3125 -12.203125 C 33.824219 -10.542969 33.324219 -9.226562 32.714844 -7.609375 L 26.101562 9.871094 L 31.25 11.820312 L 37.996094 -6.019531 C 38.972656 -8.59375 39.445312 -9.851562 39.9375 -11.515625 Z M 39.9375 -11.515625 "/></g></g></g><g fill="#fff8e7" fill-opacity="1"><g transform="translate(270.067575, 299.896532)"><g><path d="M 42.414062 -20.226562 L 36.964844 -22.289062 L 16.871094 2.070312 L 17.746094 -29.554688 L 12.058594 -31.707031 L 12.09375 4.574219 L 18.378906 6.953125 Z M 42.414062 -20.226562 "/></g></g></g><g fill="#fff8e7" fill-opacity="1"><g transform="translate(300.834501, 311.53312)"><g><path d="M 36.8125 -5.238281 C 40.320312 -14.515625 37.941406 -22.875 29.199219 -26.183594 C 20.519531 -29.464844 11.644531 -25.363281 7.75 -15.066406 C 3.515625 -3.871094 7.644531 3.847656 15.90625 6.972656 C 22.433594 9.441406 29.769531 8.316406 33.925781 1.128906 L 28.535156 -0.910156 C 26.097656 3.371094 21.769531 4.675781 17.640625 3.113281 C 12.972656 1.347656 10.085938 -2.960938 12.773438 -11.523438 L 35.765625 -2.828125 C 36.3125 -3.921875 36.628906 -4.757812 36.8125 -5.238281 Z M 27.585938 -22.277344 C 32.792969 -20.304688 34.179688 -15.46875 32.167969 -8.703125 L 14.328125 -15.453125 C 17.488281 -21.988281 22.558594 -24.179688 27.585938 -22.277344 Z M 27.585938 -22.277344 "/></g></g></g><g fill="#fff8e7" fill-opacity="1"><g transform="translate(333.696471, 323.96209)"><g><path d="M 29.15625 -26.0625 C 27.65625 -26.628906 25.835938 -26.699219 24.179688 -26.300781 L 19.699219 -23.136719 L 21.578125 -28.105469 L 16.429688 -30.054688 L 4.429688 1.675781 L 9.578125 3.621094 L 16.417969 -14.457031 C 19.15625 -21.699219 24.425781 -23.332031 29.679688 -20.9375 L 31.152344 -24.828125 C 30.664062 -25.355469 29.992188 -25.746094 29.15625 -26.0625 Z M 29.15625 -26.0625 "/></g></g></g><g fill="#fff8e7" fill-opacity="1"><g transform="translate(353.44955, 331.433049)"><g><path d="M 25.96875 -27.40625 C 19.441406 -29.871094 13.699219 -28.074219 11.5 -22.269531 C 9.394531 -16.703125 13.0625 -12.644531 18.160156 -8.9375 C 22.945312 -5.488281 24.488281 -3.054688 23.335938 0 C 22.179688 3.050781 18.839844 3.566406 15.425781 2.277344 C 11.773438 0.894531 9.453125 -1.832031 10.355469 -6.757812 L 4.96875 -8.796875 C 3.210938 -1.25 7.046875 3.625 13.570312 6.089844 C 20.277344 8.628906 26.496094 7.558594 28.761719 1.570312 C 30.800781 -3.816406 28.414062 -8.003906 21.835938 -12.679688 C 17.957031 -15.449219 15.796875 -17.703125 16.996094 -20.875 C 18.039062 -23.628906 20.460938 -24.96875 24.054688 -23.613281 C 27.765625 -22.207031 29.203125 -19.132812 28.515625 -15.148438 L 33.90625 -13.113281 C 35.441406 -19.167969 33.089844 -24.710938 25.96875 -27.40625 Z M 25.96875 -27.40625 "/></g></g></g><g fill="#fff8e7" fill-opacity="1"><g transform="translate(380.924289, 341.824475)"><g><path d="M 22.628906 8.558594 L 27.777344 10.507812 C 28.636719 6.792969 29.332031 4.59375 30.234375 2.199219 L 34.742188 -9.714844 C 35.261719 -11.09375 35.792969 -12.671875 36.148438 -13.972656 C 37.578125 -19.386719 35.605469 -23.757812 28.0625 -26.613281 C 21.058594 -29.261719 14.855469 -27.160156 11.820312 -20.574219 L 17.207031 -18.539062 C 19.21875 -22.773438 22.257812 -24.292969 26.566406 -22.660156 C 30.820312 -21.054688 31.769531 -18.503906 30.898438 -15.480469 C 30.566406 -14.238281 30.089844 -12.980469 29.570312 -11.601562 L 29.253906 -10.765625 L 27.21875 -11.535156 C 14.765625 -16.246094 7.972656 -14.570312 5.257812 -7.386719 C 3.039062 -1.519531 6.328125 3.351562 12.074219 5.523438 C 15.128906 6.679688 18.0625 7.242188 20.785156 6.5625 L 23.8125 3.804688 Z M 15.304688 2.230469 C 11.414062 0.757812 9.59375 -1.847656 11.042969 -5.675781 C 13.105469 -11.125 19.3125 -10.898438 27.804688 -6.933594 L 26.582031 -3.699219 C 24.410156 2.046875 20.09375 4.042969 15.304688 2.230469 Z M 15.304688 2.230469 "/></g></g></g><g fill="#fff8e7" fill-opacity="1"><g transform="translate(412.708786, 353.845926)"><g><path d="M 21.011719 -23.53125 L 26.9375 -21.289062 L 28.433594 -25.242188 L 22.507812 -27.480469 L 25.292969 -34.84375 L 20.144531 -36.792969 L 17.359375 -29.429688 L 13.105469 -31.035156 L 11.613281 -27.085938 L 15.863281 -25.476562 L 8.867188 -6.980469 C 8.1875 -5.183594 7.6875 -3.867188 7.433594 -3.003906 C 6.238281 1.058594 7.660156 3.445312 11.613281 4.941406 C 13.050781 5.484375 14.507812 5.964844 16.097656 6.292969 L 17.523438 2.523438 C 13.332031 1.484375 12.320312 0.347656 13.238281 -2.792969 C 13.496094 -3.65625 13.699219 -4.195312 14.105469 -5.273438 Z M 21.011719 -23.53125 "/></g></g></g><g fill="#fff8e7" fill-opacity="1"><g transform="translate(431.444294, 360.932022)"><g><path d="M 22.945312 -39.496094 C 21.089844 -40.199219 19.109375 -39.304688 18.40625 -37.449219 C 17.703125 -35.59375 18.597656 -33.613281 20.453125 -32.910156 C 22.308594 -32.210938 24.289062 -33.101562 24.992188 -34.957031 C 25.695312 -36.816406 24.800781 -38.792969 22.945312 -39.496094 Z M 9.578125 3.621094 L 21.578125 -28.105469 L 16.429688 -30.054688 L 4.429688 1.675781 Z M 9.578125 3.621094 "/></g></g></g><g fill="#fff8e7" fill-opacity="1"><g transform="translate(445.69047, 366.320174)"><g><path d="M 29.859375 -25.933594 C 19.082031 -30.007812 11.191406 -24.164062 7.796875 -15.183594 C 4.421875 -6.265625 6.449219 3.398438 17.222656 7.472656 C 28 11.546875 35.914062 5.644531 39.285156 -3.273438 C 42.683594 -12.253906 40.632812 -21.855469 29.859375 -25.933594 Z M 18.71875 3.519531 C 12.3125 1.097656 10.617188 -5.632812 13.421875 -13.058594 C 16.253906 -20.539062 21.957031 -24.40625 28.363281 -21.980469 C 34.769531 -19.558594 36.488281 -12.886719 33.660156 -5.402344 C 30.851562 2.019531 25.125 5.945312 18.71875 3.519531 Z M 18.71875 3.519531 "/></g></g></g><g fill="#fff8e7" fill-opacity="1"><g transform="translate(480.767155, 379.586788)"><g><path d="M 39.9375 -11.515625 C 41.566406 -17.261719 39.078125 -22.445312 32.132812 -25.074219 C 28.902344 -26.296875 26.363281 -26.640625 22.875 -25.5625 L 19.519531 -22.660156 L 21.578125 -28.105469 L 16.429688 -30.054688 L 4.429688 1.675781 L 9.578125 3.621094 L 14.855469 -10.324219 C 18.953125 -21.160156 24.546875 -23.289062 29.515625 -21.410156 C 34.425781 -19.550781 35.417969 -16.027344 34.3125 -12.203125 C 33.824219 -10.542969 33.324219 -9.226562 32.714844 -7.609375 L 26.101562 9.871094 L 31.25 11.820312 L 37.996094 -6.019531 C 38.972656 -8.59375 39.445312 -9.851562 39.9375 -11.515625 Z M 39.9375 -11.515625 "/></g></g></g><g fill="#fff8e7" fill-opacity="1"><g transform="translate(516.26284, 393.011875)"><g><path d="M 25.96875 -27.40625 C 19.441406 -29.871094 13.699219 -28.074219 11.5 -22.269531 C 9.394531 -16.703125 13.0625 -12.644531 18.160156 -8.9375 C 22.945312 -5.488281 24.488281 -3.054688 23.335938 0 C 22.179688 3.050781 18.839844 3.566406 15.425781 2.277344 C 11.773438 0.894531 9.453125 -1.832031 10.355469 -6.757812 L 4.96875 -8.796875 C 3.210938 -1.25 7.046875 3.625 13.570312 6.089844 C 20.277344 8.628906 26.496094 7.558594 28.761719 1.570312 C 30.800781 -3.816406 28.414062 -8.003906 21.835938 -12.679688 C 17.957031 -15.449219 15.796875 -17.703125 16.996094 -20.875 C 18.039062 -23.628906 20.460938 -24.96875 24.054688 -23.613281 C 27.765625 -22.207031 29.203125 -19.132812 28.515625 -15.148438 L 33.90625 -13.113281 C 35.441406 -19.167969 33.089844 -24.710938 25.96875 -27.40625 Z M 25.96875 -27.40625 "/></g></g></g><g fill="#fff8e7" fill-opacity="1"><g transform="translate(-29.788347, 281.906035)"><g><path d="M 21.011719 -23.53125 L 26.9375 -21.289062 L 28.433594 -25.242188 L 22.507812 -27.480469 L 25.292969 -34.84375 L 20.144531 -36.792969 L 17.359375 -29.429688 L 13.105469 -31.035156 L 11.613281 -27.085938 L 15.863281 -25.476562 L 8.867188 -6.980469 C 8.1875 -5.183594 7.6875 -3.867188 7.433594 -3.003906 C 6.238281 1.058594 7.660156 3.445312 11.613281 4.941406 C 13.050781 5.484375 14.507812 5.964844 16.097656 6.292969 L 17.523438 2.523438 C 13.332031 1.484375 12.320312 0.347656 13.238281 -2.792969 C 13.496094 -3.65625 13.699219 -4.195312 14.105469 -5.273438 Z M 21.011719 -23.53125 "/></g></g></g><g fill="#fff8e7" fill-opacity="1"><g transform="translate(-11.052839, 288.992131)"><g><path d="M 22.628906 8.558594 L 27.777344 10.507812 C 28.636719 6.792969 29.332031 4.59375 30.234375 2.199219 L 34.742188 -9.714844 C 35.261719 -11.09375 35.792969 -12.671875 36.148438 -13.972656 C 37.578125 -19.386719 35.605469 -23.757812 28.0625 -26.613281 C 21.058594 -29.261719 14.855469 -27.160156 11.820312 -20.574219 L 17.207031 -18.539062 C 19.21875 -22.773438 22.257812 -24.292969 26.566406 -22.660156 C 30.820312 -21.054688 31.769531 -18.503906 30.898438 -15.480469 C 30.566406 -14.238281 30.089844 -12.980469 29.570312 -11.601562 L 29.253906 -10.765625 L 27.21875 -11.535156 C 14.765625 -16.246094 7.972656 -14.570312 5.257812 -7.386719 C 3.039062 -1.519531 6.328125 3.351562 12.074219 5.523438 C 15.128906 6.679688 18.0625 7.242188 20.785156 6.5625 L 23.8125 3.804688 Z M 15.304688 2.230469 C 11.414062 0.757812 9.59375 -1.847656 11.042969 -5.675781 C 13.105469 -11.125 19.3125 -10.898438 27.804688 -6.933594 L 26.582031 -3.699219 C 24.410156 2.046875 20.09375 4.042969 15.304688 2.230469 Z M 15.304688 2.230469 "/></g></g></g><g fill="#fff8e7" fill-opacity="1"><g transform="translate(20.731669, 301.013586)"><g><path d="M 29.15625 -26.0625 C 27.65625 -26.628906 25.835938 -26.699219 24.179688 -26.300781 L 19.699219 -23.136719 L 21.578125 -28.105469 L 16.429688 -30.054688 L 4.429688 1.675781 L 9.578125 3.621094 L 16.417969 -14.457031 C 19.15625 -21.699219 24.425781 -23.332031 29.679688 -20.9375 L 31.152344 -24.828125 C 30.664062 -25.355469 29.992188 -25.746094 29.15625 -26.0625 Z M 29.15625 -26.0625 "/></g></g></g><g fill="#fff8e7" fill-opacity="1"><g transform="translate(40.484759, 308.484549)"><g><path d="M 21.011719 -23.53125 L 26.9375 -21.289062 L 28.433594 -25.242188 L 22.507812 -27.480469 L 25.292969 -34.84375 L 20.144531 -36.792969 L 17.359375 -29.429688 L 13.105469 -31.035156 L 11.613281 -27.085938 L 15.863281 -25.476562 L 8.867188 -6.980469 C 8.1875 -5.183594 7.6875 -3.867188 7.433594 -3.003906 C 6.238281 1.058594 7.660156 3.445312 11.613281 4.941406 C 13.050781 5.484375 14.507812 5.964844 16.097656 6.292969 L 17.523438 2.523438 C 13.332031 1.484375 12.320312 0.347656 13.238281 -2.792969 C 13.496094 -3.65625 13.699219 -4.195312 14.105469 -5.273438 Z M 21.011719 -23.53125 "/></g></g></g><g fill="#fff8e7" fill-opacity="1"><g transform="translate(59.220266, 315.570645)"><g/></g></g><g fill="#fff8e7" fill-opacity="1"><g transform="translate(72.149564, 320.460731)"><g><path d="M 4.691406 15.460938 L 27.332031 -44.40625 L 23.859375 -45.71875 L 1.21875 14.148438 Z M 4.691406 15.460938 "/></g></g></g><g fill="#fff8e7" fill-opacity="1"><g transform="translate(87.114027, 326.120552)"><g/></g></g><g fill="#fff8e7" fill-opacity="1"><g transform="translate(100.043325, 331.010638)"><g><path d="M 72.195312 -19.910156 L 66.75 -21.972656 L 43.6875 11.324219 L 48.023438 -28.367188 L 41.078125 -30.996094 L 17.847656 1.480469 L 23.046875 -38.5 L 17.179688 -40.71875 L 12.453125 4.710938 L 19.277344 7.289062 L 42.449219 -24.660156 L 38.3125 14.492188 L 45.078125 17.050781 Z M 72.195312 -19.910156 "/></g></g></g><g fill="#fff8e7" fill-opacity="1"><g transform="translate(157.028, 352.563236)"><g><path d="M 39.9375 -11.515625 C 41.566406 -17.261719 39.078125 -22.445312 32.132812 -25.074219 C 28.902344 -26.296875 26.363281 -26.640625 22.875 -25.5625 L 19.519531 -22.660156 L 26.335938 -40.679688 L 21.183594 -42.625 L 4.429688 1.675781 L 9.578125 3.621094 L 14.855469 -10.324219 C 18.953125 -21.160156 24.5 -23.167969 29.515625 -21.410156 C 34.46875 -19.671875 35.417969 -16.027344 34.3125 -12.203125 C 33.824219 -10.542969 33.324219 -9.226562 32.714844 -7.609375 L 26.101562 9.871094 L 31.25 11.820312 L 37.996094 -6.019531 C 38.972656 -8.59375 39.445312 -9.851562 39.9375 -11.515625 Z M 39.9375 -11.515625 "/></g></g></g><g fill="#fff8e7" fill-opacity="1"><g transform="translate(192.523685, 365.988323)"><g><path d="M 36.8125 -5.238281 C 40.320312 -14.515625 37.941406 -22.875 29.199219 -26.183594 C 20.519531 -29.464844 11.644531 -25.363281 7.75 -15.066406 C 3.515625 -3.871094 7.644531 3.847656 15.90625 6.972656 C 22.433594 9.441406 29.769531 8.316406 33.925781 1.128906 L 28.535156 -0.910156 C 26.097656 3.371094 21.769531 4.675781 17.640625 3.113281 C 12.972656 1.347656 10.085938 -2.960938 12.773438 -11.523438 L 35.765625 -2.828125 C 36.3125 -3.921875 36.628906 -4.757812 36.8125 -5.238281 Z M 27.585938 -22.277344 C 32.792969 -20.304688 34.179688 -15.46875 32.167969 -8.703125 L 14.328125 -15.453125 C 17.488281 -21.988281 22.558594 -24.179688 27.585938 -22.277344 Z M 27.585938 -22.277344 "/></g></g></g><g fill="#fff8e7" fill-opacity="1"><g transform="translate(225.385633, 378.417285)"><g><path d="M 29.15625 -26.0625 C 27.65625 -26.628906 25.835938 -26.699219 24.179688 -26.300781 L 19.699219 -23.136719 L 21.578125 -28.105469 L 16.429688 -30.054688 L 4.429688 1.675781 L 9.578125 3.621094 L 16.417969 -14.457031 C 19.15625 -21.699219 24.425781 -23.332031 29.679688 -20.9375 L 31.152344 -24.828125 C 30.664062 -25.355469 29.992188 -25.746094 29.15625 -26.0625 Z M 29.15625 -26.0625 "/></g></g></g><g fill="#fff8e7" fill-opacity="1"><g transform="translate(245.138734, 385.888252)"><g><path d="M 36.8125 -5.238281 C 40.320312 -14.515625 37.941406 -22.875 29.199219 -26.183594 C 20.519531 -29.464844 11.644531 -25.363281 7.75 -15.066406 C 3.515625 -3.871094 7.644531 3.847656 15.90625 6.972656 C 22.433594 9.441406 29.769531 8.316406 33.925781 1.128906 L 28.535156 -0.910156 C 26.097656 3.371094 21.769531 4.675781 17.640625 3.113281 C 12.972656 1.347656 10.085938 -2.960938 12.773438 -11.523438 L 35.765625 -2.828125 C 36.3125 -3.921875 36.628906 -4.757812 36.8125 -5.238281 Z M 27.585938 -22.277344 C 32.792969 -20.304688 34.179688 -15.46875 32.167969 -8.703125 L 14.328125 -15.453125 C 17.488281 -21.988281 22.558594 -24.179688 27.585938 -22.277344 Z M 27.585938 -22.277344 "/></g></g></g><g fill="#fff8e7" fill-opacity="1"><g transform="translate(-19.460974, 381.23227)"><g><path d="M 39.9375 -11.515625 C 41.566406 -17.261719 39.078125 -22.445312 32.132812 -25.074219 C 28.902344 -26.296875 26.363281 -26.640625 22.875 -25.5625 L 19.519531 -22.660156 L 21.578125 -28.105469 L 16.429688 -30.054688 L 4.429688 1.675781 L 9.578125 3.621094 L 14.855469 -10.324219 C 18.953125 -21.160156 24.546875 -23.289062 29.515625 -21.410156 C 34.425781 -19.550781 35.417969 -16.027344 34.3125 -12.203125 C 33.824219 -10.542969 33.324219 -9.226562 32.714844 -7.609375 L 26.101562 9.871094 L 31.25 11.820312 L 37.996094 -6.019531 C 38.972656 -8.59375 39.445312 -9.851562 39.9375 -11.515625 Z M 39.9375 -11.515625 "/></g></g></g><g fill="#fff8e7" fill-opacity="1"><g transform="translate(16.034722, 394.657362)"><g><path d="M 42.414062 -20.226562 L 36.964844 -22.289062 L 16.871094 2.070312 L 17.746094 -29.554688 L 12.058594 -31.707031 L 12.09375 4.574219 L 18.378906 6.953125 Z M 42.414062 -20.226562 "/></g></g></g><g fill="#fff8e7" fill-opacity="1"><g transform="translate(46.801649, 406.29395)"><g><path d="M 36.8125 -5.238281 C 40.320312 -14.515625 37.941406 -22.875 29.199219 -26.183594 C 20.519531 -29.464844 11.644531 -25.363281 7.75 -15.066406 C 3.515625 -3.871094 7.644531 3.847656 15.90625 6.972656 C 22.433594 9.441406 29.769531 8.316406 33.925781 1.128906 L 28.535156 -0.910156 C 26.097656 3.371094 21.769531 4.675781 17.640625 3.113281 C 12.972656 1.347656 10.085938 -2.960938 12.773438 -11.523438 L 35.765625 -2.828125 C 36.3125 -3.921875 36.628906 -4.757812 36.8125 -5.238281 Z M 27.585938 -22.277344 C 32.792969 -20.304688 34.179688 -15.46875 32.167969 -8.703125 L 14.328125 -15.453125 C 17.488281 -21.988281 22.558594 -24.179688 27.585938 -22.277344 Z M 27.585938 -22.277344 "/></g></g></g><g fill="#fff8e7" fill-opacity="1"><g transform="translate(79.663597, 418.722912)"><g><path d="M 29.15625 -26.0625 C 27.65625 -26.628906 25.835938 -26.699219 24.179688 -26.300781 L 19.699219 -23.136719 L 21.578125 -28.105469 L 16.429688 -30.054688 L 4.429688 1.675781 L 9.578125 3.621094 L 16.417969 -14.457031 C 19.15625 -21.699219 24.425781 -23.332031 29.679688 -20.9375 L 31.152344 -24.828125 C 30.664062 -25.355469 29.992188 -25.746094 29.15625 -26.0625 Z M 29.15625 -26.0625 "/></g></g></g><g fill="#fff8e7" fill-opacity="1"><g transform="translate(99.416675, 426.193871)"><g><path d="M 25.96875 -27.40625 C 19.441406 -29.871094 13.699219 -28.074219 11.5 -22.269531 C 9.394531 -16.703125 13.0625 -12.644531 18.160156 -8.9375 C 22.945312 -5.488281 24.488281 -3.054688 23.335938 0 C 22.179688 3.050781 18.839844 3.566406 15.425781 2.277344 C 11.773438 0.894531 9.453125 -1.832031 10.355469 -6.757812 L 4.96875 -8.796875 C 3.210938 -1.25 7.046875 3.625 13.570312 6.089844 C 20.277344 8.628906 26.496094 7.558594 28.761719 1.570312 C 30.800781 -3.816406 28.414062 -8.003906 21.835938 -12.679688 C 17.957031 -15.449219 15.796875 -17.703125 16.996094 -20.875 C 18.039062 -23.628906 20.460938 -24.96875 24.054688 -23.613281 C 27.765625 -22.207031 29.203125 -19.132812 28.515625 -15.148438 L 33.90625 -13.113281 C 35.441406 -19.167969 33.089844 -24.710938 25.96875 -27.40625 Z M 25.96875 -27.40625 "/></g></g></g><g fill="#fff8e7" fill-opacity="1"><g transform="translate(126.891414, 436.585296)"><g><path d="M 22.628906 8.558594 L 27.777344 10.507812 C 28.636719 6.792969 29.332031 4.59375 30.234375 2.199219 L 34.742188 -9.714844 C 35.261719 -11.09375 35.792969 -12.671875 36.148438 -13.972656 C 37.578125 -19.386719 35.605469 -23.757812 28.0625 -26.613281 C 21.058594 -29.261719 14.855469 -27.160156 11.820312 -20.574219 L 17.207031 -18.539062 C 19.21875 -22.773438 22.257812 -24.292969 26.566406 -22.660156 C 30.820312 -21.054688 31.769531 -18.503906 30.898438 -15.480469 C 30.566406 -14.238281 30.089844 -12.980469 29.570312 -11.601562 L 29.253906 -10.765625 L 27.21875 -11.535156 C 14.765625 -16.246094 7.972656 -14.570312 5.257812 -7.386719 C 3.039062 -1.519531 6.328125 3.351562 12.074219 5.523438 C 15.128906 6.679688 18.0625 7.242188 20.785156 6.5625 L 23.8125 3.804688 Z M 15.304688 2.230469 C 11.414062 0.757812 9.59375 -1.847656 11.042969 -5.675781 C 13.105469 -11.125 19.3125 -10.898438 27.804688 -6.933594 L 26.582031 -3.699219 C 24.410156 2.046875 20.09375 4.042969 15.304688 2.230469 Z M 15.304688 2.230469 "/></g></g></g><g fill="#fff8e7" fill-opacity="1"><g transform="translate(158.675912, 448.606747)"><g><path d="M 21.011719 -23.53125 L 26.9375 -21.289062 L 28.433594 -25.242188 L 22.507812 -27.480469 L 25.292969 -34.84375 L 20.144531 -36.792969 L 17.359375 -29.429688 L 13.105469 -31.035156 L 11.613281 -27.085938 L 15.863281 -25.476562 L 8.867188 -6.980469 C 8.1875 -5.183594 7.6875 -3.867188 7.433594 -3.003906 C 6.238281 1.058594 7.660156 3.445312 11.613281 4.941406 C 13.050781 5.484375 14.507812 5.964844 16.097656 6.292969 L 17.523438 2.523438 C 13.332031 1.484375 12.320312 0.347656 13.238281 -2.792969 C 13.496094 -3.65625 13.699219 -4.195312 14.105469 -5.273438 Z M 21.011719 -23.53125 "/></g></g></g><g fill="#fff8e7" fill-opacity="1"><g transform="translate(177.41142, 455.692843)"><g><path d="M 22.945312 -39.496094 C 21.089844 -40.199219 19.109375 -39.304688 18.40625 -37.449219 C 17.703125 -35.59375 18.597656 -33.613281 20.453125 -32.910156 C 22.308594 -32.210938 24.289062 -33.101562 24.992188 -34.957031 C 25.695312 -36.816406 24.800781 -38.792969 22.945312 -39.496094 Z M 9.578125 3.621094 L 21.578125 -28.105469 L 16.429688 -30.054688 L 4.429688 1.675781 Z M 9.578125 3.621094 "/></g></g></g><g fill="#fff8e7" fill-opacity="1"><g transform="translate(191.657596, 461.080996)"><g><path d="M 29.859375 -25.933594 C 19.082031 -30.007812 11.191406 -24.164062 7.796875 -15.183594 C 4.421875 -6.265625 6.449219 3.398438 17.222656 7.472656 C 28 11.546875 35.914062 5.644531 39.285156 -3.273438 C 42.683594 -12.253906 40.632812 -21.855469 29.859375 -25.933594 Z M 18.71875 3.519531 C 12.3125 1.097656 10.617188 -5.632812 13.421875 -13.058594 C 16.253906 -20.539062 21.957031 -24.40625 28.363281 -21.980469 C 34.769531 -19.558594 36.488281 -12.886719 33.660156 -5.402344 C 30.851562 2.019531 25.125 5.945312 18.71875 3.519531 Z M 18.71875 3.519531 "/></g></g></g><g fill="#fff8e7" fill-opacity="1"><g transform="translate(226.734281, 474.34761)"><g><path d="M 39.9375 -11.515625 C 41.566406 -17.261719 39.078125 -22.445312 32.132812 -25.074219 C 28.902344 -26.296875 26.363281 -26.640625 22.875 -25.5625 L 19.519531 -22.660156 L 21.578125 -28.105469 L 16.429688 -30.054688 L 4.429688 1.675781 L 9.578125 3.621094 L 14.855469 -10.324219 C 18.953125 -21.160156 24.546875 -23.289062 29.515625 -21.410156 C 34.425781 -19.550781 35.417969 -16.027344 34.3125 -12.203125 C 33.824219 -10.542969 33.324219 -9.226562 32.714844 -7.609375 L 26.101562 9.871094 L 31.25 11.820312 L 37.996094 -6.019531 C 38.972656 -8.59375 39.445312 -9.851562 39.9375 -11.515625 Z M 39.9375 -11.515625 "/></g></g></g><g fill="#fff8e7" fill-opacity="1"><g transform="translate(262.229966, 487.772697)"><g><path d="M 25.96875 -27.40625 C 19.441406 -29.871094 13.699219 -28.074219 11.5 -22.269531 C 9.394531 -16.703125 13.0625 -12.644531 18.160156 -8.9375 C 22.945312 -5.488281 24.488281 -3.054688 23.335938 0 C 22.179688 3.050781 18.839844 3.566406 15.425781 2.277344 C 11.773438 0.894531 9.453125 -1.832031 10.355469 -6.757812 L 4.96875 -8.796875 C 3.210938 -1.25 7.046875 3.625 13.570312 6.089844 C 20.277344 8.628906 26.496094 7.558594 28.761719 1.570312 C 30.800781 -3.816406 28.414062 -8.003906 21.835938 -12.679688 C 17.957031 -15.449219 15.796875 -17.703125 16.996094 -20.875 C 18.039062 -23.628906 20.460938 -24.96875 24.054688 -23.613281 C 27.765625 -22.207031 29.203125 -19.132812 28.515625 -15.148438 L 33.90625 -13.113281 C 35.441406 -19.167969 33.089844 -24.710938 25.96875 -27.40625 Z M 25.96875 -27.40625 "/></g></g></g><g fill="#fff8e7" fill-opacity="1"><g transform="translate(289.704704, 498.164122)"><g/></g></g><g fill="#fff8e7" fill-opacity="1"><g transform="translate(302.634023, 503.054216)"><g><path d="M 34.738281 -35.035156 C 27.136719 -37.910156 19.269531 -35.753906 16.578125 -28.628906 C 13.996094 -21.804688 17.972656 -16.945312 24.644531 -12.507812 C 31.253906 -8.09375 33.265625 -4.730469 31.363281 0.296875 C 29.734375 4.609375 24.929688 5.734375 20.199219 3.945312 C 14.8125 1.90625 12.195312 -2.574219 13.058594 -8.472656 L 7.550781 -10.554688 C 5.4375 -2.253906 9.441406 4.527344 18.539062 7.96875 C 26.503906 10.980469 34.496094 8.667969 37.234375 1.421875 C 39.882812 -5.582031 36.738281 -11.011719 28.429688 -16.550781 C 22.6875 -20.363281 20.839844 -23.253906 22.535156 -27.742188 C 24.167969 -32.054688 28.410156 -32.777344 32.78125 -31.125 C 37.988281 -29.152344 39.910156 -25.003906 38.417969 -19.617188 L 43.925781 -17.53125 C 45.820312 -24.890625 43.300781 -31.796875 34.738281 -35.035156 Z M 34.738281 -35.035156 "/></g></g></g><g fill="#fff8e7" fill-opacity="1"><g transform="translate(337.650851, 516.298191)"><g><path d="M 21.011719 -23.53125 L 26.9375 -21.289062 L 28.433594 -25.242188 L 22.507812 -27.480469 L 25.292969 -34.84375 L 20.144531 -36.792969 L 17.359375 -29.429688 L 13.105469 -31.035156 L 11.613281 -27.085938 L 15.863281 -25.476562 L 8.867188 -6.980469 C 8.1875 -5.183594 7.6875 -3.867188 7.433594 -3.003906 C 6.238281 1.058594 7.660156 3.445312 11.613281 4.941406 C 13.050781 5.484375 14.507812 5.964844 16.097656 6.292969 L 17.523438 2.523438 C 13.332031 1.484375 12.320312 0.347656 13.238281 -2.792969 C 13.496094 -3.65625 13.699219 -4.195312 14.105469 -5.273438 Z M 21.011719 -23.53125 "/></g></g></g><g fill="#fff8e7" fill-opacity="1"><g transform="translate(356.386358, 523.384287)"><g><path d="M 22.628906 8.558594 L 27.777344 10.507812 C 28.636719 6.792969 29.332031 4.59375 30.234375 2.199219 L 34.742188 -9.714844 C 35.261719 -11.09375 35.792969 -12.671875 36.148438 -13.972656 C 37.578125 -19.386719 35.605469 -23.757812 28.0625 -26.613281 C 21.058594 -29.261719 14.855469 -27.160156 11.820312 -20.574219 L 17.207031 -18.539062 C 19.21875 -22.773438 22.257812 -24.292969 26.566406 -22.660156 C 30.820312 -21.054688 31.769531 -18.503906 30.898438 -15.480469 C 30.566406 -14.238281 30.089844 -12.980469 29.570312 -11.601562 L 29.253906 -10.765625 L 27.21875 -11.535156 C 14.765625 -16.246094 7.972656 -14.570312 5.257812 -7.386719 C 3.039062 -1.519531 6.328125 3.351562 12.074219 5.523438 C 15.128906 6.679688 18.0625 7.242188 20.785156 6.5625 L 23.8125 3.804688 Z M 15.304688 2.230469 C 11.414062 0.757812 9.59375 -1.847656 11.042969 -5.675781 C 13.105469 -11.125 19.3125 -10.898438 27.804688 -6.933594 L 26.582031 -3.699219 C 24.410156 2.046875 20.09375 4.042969 15.304688 2.230469 Z M 15.304688 2.230469 "/></g></g></g><g fill="#fff8e7" fill-opacity="1"><g transform="translate(388.170856, 535.405738)"><g><path d="M 29.15625 -26.0625 C 27.65625 -26.628906 25.835938 -26.699219 24.179688 -26.300781 L 19.699219 -23.136719 L 21.578125 -28.105469 L 16.429688 -30.054688 L 4.429688 1.675781 L 9.578125 3.621094 L 16.417969 -14.457031 C 19.15625 -21.699219 24.425781 -23.332031 29.679688 -20.9375 L 31.152344 -24.828125 C 30.664062 -25.355469 29.992188 -25.746094 29.15625 -26.0625 Z M 29.15625 -26.0625 "/></g></g></g><g fill="#fff8e7" fill-opacity="1"><g transform="translate(407.923935, 542.876697)"><g><path d="M 21.011719 -23.53125 L 26.9375 -21.289062 L 28.433594 -25.242188 L 22.507812 -27.480469 L 25.292969 -34.84375 L 20.144531 -36.792969 L 17.359375 -29.429688 L 13.105469 -31.035156 L 11.613281 -27.085938 L 15.863281 -25.476562 L 8.867188 -6.980469 C 8.1875 -5.183594 7.6875 -3.867188 7.433594 -3.003906 C 6.238281 1.058594 7.660156 3.445312 11.613281 4.941406 C 13.050781 5.484375 14.507812 5.964844 16.097656 6.292969 L 17.523438 2.523438 C 13.332031 1.484375 12.320312 0.347656 13.238281 -2.792969 C 13.496094 -3.65625 13.699219 -4.195312 14.105469 -5.273438 Z M 21.011719 -23.53125 "/></g></g></g><g fill="#fff8e7" fill-opacity="1"><g transform="translate(-15.538394, 478.136101)"><g><path d="M 42.414062 -20.226562 L 36.964844 -22.289062 L 16.871094 2.070312 L 17.746094 -29.554688 L 12.058594 -31.707031 L 12.09375 4.574219 L 18.378906 6.953125 Z M 42.414062 -20.226562 "/></g></g></g><g fill="#fff8e7" fill-opacity="1"><g transform="translate(15.228533, 489.772689)"><g><path d="M 36.8125 -5.238281 C 40.320312 -14.515625 37.941406 -22.875 29.199219 -26.183594 C 20.519531 -29.464844 11.644531 -25.363281 7.75 -15.066406 C 3.515625 -3.871094 7.644531 3.847656 15.90625 6.972656 C 22.433594 9.441406 29.769531 8.316406 33.925781 1.128906 L 28.535156 -0.910156 C 26.097656 3.371094 21.769531 4.675781 17.640625 3.113281 C 12.972656 1.347656 10.085938 -2.960938 12.773438 -11.523438 L 35.765625 -2.828125 C 36.3125 -3.921875 36.628906 -4.757812 36.8125 -5.238281 Z M 27.585938 -22.277344 C 32.792969 -20.304688 34.179688 -15.46875 32.167969 -8.703125 L 14.328125 -15.453125 C 17.488281 -21.988281 22.558594 -24.179688 27.585938 -22.277344 Z M 27.585938 -22.277344 "/></g></g></g><g fill="#fff8e7" fill-opacity="1"><g transform="translate(48.090481, 502.201651)"><g><path d="M 29.15625 -26.0625 C 27.65625 -26.628906 25.835938 -26.699219 24.179688 -26.300781 L 19.699219 -23.136719 L 21.578125 -28.105469 L 16.429688 -30.054688 L 4.429688 1.675781 L 9.578125 3.621094 L 16.417969 -14.457031 C 19.15625 -21.699219 24.425781 -23.332031 29.679688 -20.9375 L 31.152344 -24.828125 C 30.664062 -25.355469 29.992188 -25.746094 29.15625 -26.0625 Z M 29.15625 -26.0625 "/></g></g></g><g fill="#fff8e7" fill-opacity="1"><g transform="translate(67.84356, 509.67261)"><g><path d="M 25.96875 -27.40625 C 19.441406 -29.871094 13.699219 -28.074219 11.5 -22.269531 C 9.394531 -16.703125 13.0625 -12.644531 18.160156 -8.9375 C 22.945312 -5.488281 24.488281 -3.054688 23.335938 0 C 22.179688 3.050781 18.839844 3.566406 15.425781 2.277344 C 11.773438 0.894531 9.453125 -1.832031 10.355469 -6.757812 L 4.96875 -8.796875 C 3.210938 -1.25 7.046875 3.625 13.570312 6.089844 C 20.277344 8.628906 26.496094 7.558594 28.761719 1.570312 C 30.800781 -3.816406 28.414062 -8.003906 21.835938 -12.679688 C 17.957031 -15.449219 15.796875 -17.703125 16.996094 -20.875 C 18.039062 -23.628906 20.460938 -24.96875 24.054688 -23.613281 C 27.765625 -22.207031 29.203125 -19.132812 28.515625 -15.148438 L 33.90625 -13.113281 C 35.441406 -19.167969 33.089844 -24.710938 25.96875 -27.40625 Z M 25.96875 -27.40625 "/></g></g></g><g fill="#fff8e7" fill-opacity="1"><g transform="translate(95.318298, 520.064035)"><g><path d="M 22.628906 8.558594 L 27.777344 10.507812 C 28.636719 6.792969 29.332031 4.59375 30.234375 2.199219 L 34.742188 -9.714844 C 35.261719 -11.09375 35.792969 -12.671875 36.148438 -13.972656 C 37.578125 -19.386719 35.605469 -23.757812 28.0625 -26.613281 C 21.058594 -29.261719 14.855469 -27.160156 11.820312 -20.574219 L 17.207031 -18.539062 C 19.21875 -22.773438 22.257812 -24.292969 26.566406 -22.660156 C 30.820312 -21.054688 31.769531 -18.503906 30.898438 -15.480469 C 30.566406 -14.238281 30.089844 -12.980469 29.570312 -11.601562 L 29.253906 -10.765625 L 27.21875 -11.535156 C 14.765625 -16.246094 7.972656 -14.570312 5.257812 -7.386719 C 3.039062 -1.519531 6.328125 3.351562 12.074219 5.523438 C 15.128906 6.679688 18.0625 7.242188 20.785156 6.5625 L 23.8125 3.804688 Z M 15.304688 2.230469 C 11.414062 0.757812 9.59375 -1.847656 11.042969 -5.675781 C 13.105469 -11.125 19.3125 -10.898438 27.804688 -6.933594 L 26.582031 -3.699219 C 24.410156 2.046875 20.09375 4.042969 15.304688 2.230469 Z M 15.304688 2.230469 "/></g></g></g><g fill="#fff8e7" fill-opacity="1"><g transform="translate(127.102796, 532.085487)"><g><path d="M 21.011719 -23.53125 L 26.9375 -21.289062 L 28.433594 -25.242188 L 22.507812 -27.480469 L 25.292969 -34.84375 L 20.144531 -36.792969 L 17.359375 -29.429688 L 13.105469 -31.035156 L 11.613281 -27.085938 L 15.863281 -25.476562 L 8.867188 -6.980469 C 8.1875 -5.183594 7.6875 -3.867188 7.433594 -3.003906 C 6.238281 1.058594 7.660156 3.445312 11.613281 4.941406 C 13.050781 5.484375 14.507812 5.964844 16.097656 6.292969 L 17.523438 2.523438 C 13.332031 1.484375 12.320312 0.347656 13.238281 -2.792969 C 13.496094 -3.65625 13.699219 -4.195312 14.105469 -5.273438 Z M 21.011719 -23.53125 "/></g></g></g><g fill="#fff8e7" fill-opacity="1"><g transform="translate(145.838304, 539.171582)"><g><path d="M 22.945312 -39.496094 C 21.089844 -40.199219 19.109375 -39.304688 18.40625 -37.449219 C 17.703125 -35.59375 18.597656 -33.613281 20.453125 -32.910156 C 22.308594 -32.210938 24.289062 -33.101562 24.992188 -34.957031 C 25.695312 -36.816406 24.800781 -38.792969 22.945312 -39.496094 Z M 9.578125 3.621094 L 21.578125 -28.105469 L 16.429688 -30.054688 L 4.429688 1.675781 Z M 9.578125 3.621094 "/></g></g></g><g fill="#fff8e7" fill-opacity="1"><g transform="translate(160.08448, 544.559735)"><g><path d="M 29.859375 -25.933594 C 19.082031 -30.007812 11.191406 -24.164062 7.796875 -15.183594 C 4.421875 -6.265625 6.449219 3.398438 17.222656 7.472656 C 28 11.546875 35.914062 5.644531 39.285156 -3.273438 C 42.683594 -12.253906 40.632812 -21.855469 29.859375 -25.933594 Z M 18.71875 3.519531 C 12.3125 1.097656 10.617188 -5.632812 13.421875 -13.058594 C 16.253906 -20.539062 21.957031 -24.40625 28.363281 -21.980469 C 34.769531 -19.558594 36.488281 -12.886719 33.660156 -5.402344 C 30.851562 2.019531 25.125 5.945312 18.71875 3.519531 Z M 18.71875 3.519531 "/></g></g></g><g fill="#fff8e7" fill-opacity="1"><g transform="translate(195.161165, 557.826349)"><g><path d="M 39.9375 -11.515625 C 41.566406 -17.261719 39.078125 -22.445312 32.132812 -25.074219 C 28.902344 -26.296875 26.363281 -26.640625 22.875 -25.5625 L 19.519531 -22.660156 L 21.578125 -28.105469 L 16.429688 -30.054688 L 4.429688 1.675781 L 9.578125 3.621094 L 14.855469 -10.324219 C 18.953125 -21.160156 24.546875 -23.289062 29.515625 -21.410156 C 34.425781 -19.550781 35.417969 -16.027344 34.3125 -12.203125 C 33.824219 -10.542969 33.324219 -9.226562 32.714844 -7.609375 L 26.101562 9.871094 L 31.25 11.820312 L 37.996094 -6.019531 C 38.972656 -8.59375 39.445312 -9.851562 39.9375 -11.515625 Z M 39.9375 -11.515625 "/></g></g></g><g fill="#fff8e7" fill-opacity="1"><g transform="translate(230.65685, 571.251436)"><g><path d="M 25.96875 -27.40625 C 19.441406 -29.871094 13.699219 -28.074219 11.5 -22.269531 C 9.394531 -16.703125 13.0625 -12.644531 18.160156 -8.9375 C 22.945312 -5.488281 24.488281 -3.054688 23.335938 0 C 22.179688 3.050781 18.839844 3.566406 15.425781 2.277344 C 11.773438 0.894531 9.453125 -1.832031 10.355469 -6.757812 L 4.96875 -8.796875 C 3.210938 -1.25 7.046875 3.625 13.570312 6.089844 C 20.277344 8.628906 26.496094 7.558594 28.761719 1.570312 C 30.800781 -3.816406 28.414062 -8.003906 21.835938 -12.679688 C 17.957031 -15.449219 15.796875 -17.703125 16.996094 -20.875 C 18.039062 -23.628906 20.460938 -24.96875 24.054688 -23.613281 C 27.765625 -22.207031 29.203125 -19.132812 28.515625 -15.148438 L 33.90625 -13.113281 C 35.441406 -19.167969 33.089844 -24.710938 25.96875 -27.40625 Z M 25.96875 -27.40625 "/></g></g></g><g fill="#fff8e7" fill-opacity="1"><g transform="translate(258.131588, 581.642861)"><g/></g></g><g fill="#fff8e7" fill-opacity="1"><g transform="translate(271.060907, 586.532955)"><g><path d="M 4.691406 15.460938 L 27.332031 -44.40625 L 23.859375 -45.71875 L 1.21875 14.148438 Z M 4.691406 15.460938 "/></g></g></g><g fill="#fff8e7" fill-opacity="1"><g transform="translate(-14.42913, 573.975886)"><g><path d="M 36.8125 -5.238281 C 40.320312 -14.515625 37.941406 -22.875 29.199219 -26.183594 C 20.519531 -29.464844 11.644531 -25.363281 7.75 -15.066406 C 3.515625 -3.871094 7.644531 3.847656 15.90625 6.972656 C 22.433594 9.441406 29.769531 8.316406 33.925781 1.128906 L 28.535156 -0.910156 C 26.097656 3.371094 21.769531 4.675781 17.640625 3.113281 C 12.972656 1.347656 10.085938 -2.960938 12.773438 -11.523438 L 35.765625 -2.828125 C 36.3125 -3.921875 36.628906 -4.757812 36.8125 -5.238281 Z M 27.585938 -22.277344 C 32.792969 -20.304688 34.179688 -15.46875 32.167969 -8.703125 L 14.328125 -15.453125 C 17.488281 -21.988281 22.558594 -24.179688 27.585938 -22.277344 Z M 27.585938 -22.277344 "/></g></g></g><g fill="#fff8e7" fill-opacity="1"><g transform="translate(18.432818, 586.404848)"><g/></g></g><g fill="#fff8e7" fill-opacity="1"><g transform="translate(31.362116, 591.294934)"><g><path d="M 38.269531 -33.699219 C 26.535156 -38.136719 15.3125 -31.980469 10.558594 -19.410156 C 5.984375 -7.316406 9.203125 4.4375 21.234375 8.988281 C 32.128906 13.109375 40.167969 8.691406 43.773438 1.5 L 44.0625 0.925781 L 38.914062 -1.023438 L 38.566406 -0.46875 C 35.128906 5.003906 29.957031 7.636719 23.074219 5.03125 C 14.933594 1.953125 12.546875 -7.296875 16.394531 -17.476562 C 20.175781 -27.472656 28.167969 -32.867188 36.609375 -29.675781 C 43.496094 -27.070312 45.628906 -21.679688 44.585938 -15.300781 L 44.480469 -14.65625 L 49.628906 -12.707031 L 49.792969 -13.328125 C 52.011719 -21.726562 48.746094 -29.738281 38.269531 -33.699219 Z M 38.269531 -33.699219 "/></g></g></g><g fill="#fff8e7" fill-opacity="1"><g transform="translate(73.202746, 607.11979)"><g><path d="M 29.859375 -25.933594 C 19.082031 -30.007812 11.191406 -24.164062 7.796875 -15.183594 C 4.421875 -6.265625 6.449219 3.398438 17.222656 7.472656 C 28 11.546875 35.914062 5.644531 39.285156 -3.273438 C 42.683594 -12.253906 40.632812 -21.855469 29.859375 -25.933594 Z M 18.71875 3.519531 C 12.3125 1.097656 10.617188 -5.632812 13.421875 -13.058594 C 16.253906 -20.539062 21.957031 -24.40625 28.363281 -21.980469 C 34.769531 -19.558594 36.488281 -12.886719 33.660156 -5.402344 C 30.851562 2.019531 25.125 5.945312 18.71875 3.519531 Z M 18.71875 3.519531 "/></g></g></g><g fill="#fff8e7" fill-opacity="1"><g transform="translate(108.279431, 620.386404)"><g><path d="M 39.9375 -11.515625 C 41.566406 -17.261719 39.078125 -22.445312 32.132812 -25.074219 C 28.902344 -26.296875 26.363281 -26.640625 22.875 -25.5625 L 19.519531 -22.660156 L 21.578125 -28.105469 L 16.429688 -30.054688 L 4.429688 1.675781 L 9.578125 3.621094 L 14.855469 -10.324219 C 18.953125 -21.160156 24.546875 -23.289062 29.515625 -21.410156 C 34.425781 -19.550781 35.417969 -16.027344 34.3125 -12.203125 C 33.824219 -10.542969 33.324219 -9.226562 32.714844 -7.609375 L 26.101562 9.871094 L 31.25 11.820312 L 37.996094 -6.019531 C 38.972656 -8.59375 39.445312 -9.851562 39.9375 -11.515625 Z M 39.9375 -11.515625 "/></g></g></g><g fill="#fff8e7" fill-opacity="1"><g transform="translate(143.775116, 633.811491)"><g><path d="M 42.414062 -20.226562 L 36.964844 -22.289062 L 16.871094 2.070312 L 17.746094 -29.554688 L 12.058594 -31.707031 L 12.09375 4.574219 L 18.378906 6.953125 Z M 42.414062 -20.226562 "/></g></g></g><g fill="#fff8e7" fill-opacity="1"><g transform="translate(174.542042, 645.448079)"><g><path d="M 36.8125 -5.238281 C 40.320312 -14.515625 37.941406 -22.875 29.199219 -26.183594 C 20.519531 -29.464844 11.644531 -25.363281 7.75 -15.066406 C 3.515625 -3.871094 7.644531 3.847656 15.90625 6.972656 C 22.433594 9.441406 29.769531 8.316406 33.925781 1.128906 L 28.535156 -0.910156 C 26.097656 3.371094 21.769531 4.675781 17.640625 3.113281 C 12.972656 1.347656 10.085938 -2.960938 12.773438 -11.523438 L 35.765625 -2.828125 C 36.3125 -3.921875 36.628906 -4.757812 36.8125 -5.238281 Z M 27.585938 -22.277344 C 32.792969 -20.304688 34.179688 -15.46875 32.167969 -8.703125 L 14.328125 -15.453125 C 17.488281 -21.988281 22.558594 -24.179688 27.585938 -22.277344 Z M 27.585938 -22.277344 "/></g></g></g><g fill="#fff8e7" fill-opacity="1"><g transform="translate(207.404012, 657.87705)"><g><path d="M 29.15625 -26.0625 C 27.65625 -26.628906 25.835938 -26.699219 24.179688 -26.300781 L 19.699219 -23.136719 L 21.578125 -28.105469 L 16.429688 -30.054688 L 4.429688 1.675781 L 9.578125 3.621094 L 16.417969 -14.457031 C 19.15625 -21.699219 24.425781 -23.332031 29.679688 -20.9375 L 31.152344 -24.828125 C 30.664062 -25.355469 29.992188 -25.746094 29.15625 -26.0625 Z M 29.15625 -26.0625 "/></g></g></g><g fill="#fff8e7" fill-opacity="1"><g transform="translate(227.157091, 665.348009)"><g><path d="M 25.96875 -27.40625 C 19.441406 -29.871094 13.699219 -28.074219 11.5 -22.269531 C 9.394531 -16.703125 13.0625 -12.644531 18.160156 -8.9375 C 22.945312 -5.488281 24.488281 -3.054688 23.335938 0 C 22.179688 3.050781 18.839844 3.566406 15.425781 2.277344 C 11.773438 0.894531 9.453125 -1.832031 10.355469 -6.757812 L 4.96875 -8.796875 C 3.210938 -1.25 7.046875 3.625 13.570312 6.089844 C 20.277344 8.628906 26.496094 7.558594 28.761719 1.570312 C 30.800781 -3.816406 28.414062 -8.003906 21.835938 -12.679688 C 17.957031 -15.449219 15.796875 -17.703125 16.996094 -20.875 C 18.039062 -23.628906 20.460938 -24.96875 24.054688 -23.613281 C 27.765625 -22.207031 29.203125 -19.132812 28.515625 -15.148438 L 33.90625 -13.113281 C 35.441406 -19.167969 33.089844 -24.710938 25.96875 -27.40625 Z M 25.96875 -27.40625 "/></g></g></g><g fill="#fff8e7" fill-opacity="1"><g transform="translate(254.63183, 675.739434)"><g><path d="M 22.628906 8.558594 L 27.777344 10.507812 C 28.636719 6.792969 29.332031 4.59375 30.234375 2.199219 L 34.742188 -9.714844 C 35.261719 -11.09375 35.792969 -12.671875 36.148438 -13.972656 C 37.578125 -19.386719 35.605469 -23.757812 28.0625 -26.613281 C 21.058594 -29.261719 14.855469 -27.160156 11.820312 -20.574219 L 17.207031 -18.539062 C 19.21875 -22.773438 22.257812 -24.292969 26.566406 -22.660156 C 30.820312 -21.054688 31.769531 -18.503906 30.898438 -15.480469 C 30.566406 -14.238281 30.089844 -12.980469 29.570312 -11.601562 L 29.253906 -10.765625 L 27.21875 -11.535156 C 14.765625 -16.246094 7.972656 -14.570312 5.257812 -7.386719 C 3.039062 -1.519531 6.328125 3.351562 12.074219 5.523438 C 15.128906 6.679688 18.0625 7.242188 20.785156 6.5625 L 23.8125 3.804688 Z M 15.304688 2.230469 C 11.414062 0.757812 9.59375 -1.847656 11.042969 -5.675781 C 13.105469 -11.125 19.3125 -10.898438 27.804688 -6.933594 L 26.582031 -3.699219 C 24.410156 2.046875 20.09375 4.042969 15.304688 2.230469 Z M 15.304688 2.230469 "/></g></g></g><g fill="#fff8e7" fill-opacity="1"><g transform="translate(286.416327, 687.760885)"><g><path d="M 21.011719 -23.53125 L 26.9375 -21.289062 L 28.433594 -25.242188 L 22.507812 -27.480469 L 25.292969 -34.84375 L 20.144531 -36.792969 L 17.359375 -29.429688 L 13.105469 -31.035156 L 11.613281 -27.085938 L 15.863281 -25.476562 L 8.867188 -6.980469 C 8.1875 -5.183594 7.6875 -3.867188 7.433594 -3.003906 C 6.238281 1.058594 7.660156 3.445312 11.613281 4.941406 C 13.050781 5.484375 14.507812 5.964844 16.097656 6.292969 L 17.523438 2.523438 C 13.332031 1.484375 12.320312 0.347656 13.238281 -2.792969 C 13.496094 -3.65625 13.699219 -4.195312 14.105469 -5.273438 Z M 21.011719 -23.53125 "/></g></g></g><g fill="#fff8e7" fill-opacity="1"><g transform="translate(305.151835, 694.846981)"><g><path d="M 22.945312 -39.496094 C 21.089844 -40.199219 19.109375 -39.304688 18.40625 -37.449219 C 17.703125 -35.59375 18.597656 -33.613281 20.453125 -32.910156 C 22.308594 -32.210938 24.289062 -33.101562 24.992188 -34.957031 C 25.695312 -36.816406 24.800781 -38.792969 22.945312 -39.496094 Z M 9.578125 3.621094 L 21.578125 -28.105469 L 16.429688 -30.054688 L 4.429688 1.675781 Z M 9.578125 3.621094 "/></g></g></g><g fill="#fff8e7" fill-opacity="1"><g transform="translate(319.398011, 700.235134)"><g><path d="M 29.859375 -25.933594 C 19.082031 -30.007812 11.191406 -24.164062 7.796875 -15.183594 C 4.421875 -6.265625 6.449219 3.398438 17.222656 7.472656 C 28 11.546875 35.914062 5.644531 39.285156 -3.273438 C 42.683594 -12.253906 40.632812 -21.855469 29.859375 -25.933594 Z M 18.71875 3.519531 C 12.3125 1.097656 10.617188 -5.632812 13.421875 -13.058594 C 16.253906 -20.539062 21.957031 -24.40625 28.363281 -21.980469 C 34.769531 -19.558594 36.488281 -12.886719 33.660156 -5.402344 C 30.851562 2.019531 25.125 5.945312 18.71875 3.519531 Z M 18.71875 3.519531 "/></g></g></g><g fill="#fff8e7" fill-opacity="1"><g transform="translate(354.474696, 713.501747)"><g><path d="M 39.9375 -11.515625 C 41.566406 -17.261719 39.078125 -22.445312 32.132812 -25.074219 C 28.902344 -26.296875 26.363281 -26.640625 22.875 -25.5625 L 19.519531 -22.660156 L 21.578125 -28.105469 L 16.429688 -30.054688 L 4.429688 1.675781 L 9.578125 3.621094 L 14.855469 -10.324219 C 18.953125 -21.160156 24.546875 -23.289062 29.515625 -21.410156 C 34.425781 -19.550781 35.417969 -16.027344 34.3125 -12.203125 C 33.824219 -10.542969 33.324219 -9.226562 32.714844 -7.609375 L 26.101562 9.871094 L 31.25 11.820312 L 37.996094 -6.019531 C 38.972656 -8.59375 39.445312 -9.851562 39.9375 -11.515625 Z M 39.9375 -11.515625 "/></g></g></g><g fill="#fff8e7" fill-opacity="1"><g transform="translate(389.970381, 726.926835)"><g><path d="M 25.96875 -27.40625 C 19.441406 -29.871094 13.699219 -28.074219 11.5 -22.269531 C 9.394531 -16.703125 13.0625 -12.644531 18.160156 -8.9375 C 22.945312 -5.488281 24.488281 -3.054688 23.335938 0 C 22.179688 3.050781 18.839844 3.566406 15.425781 2.277344 C 11.773438 0.894531 9.453125 -1.832031 10.355469 -6.757812 L 4.96875 -8.796875 C 3.210938 -1.25 7.046875 3.625 13.570312 6.089844 C 20.277344 8.628906 26.496094 7.558594 28.761719 1.570312 C 30.800781 -3.816406 28.414062 -8.003906 21.835938 -12.679688 C 17.957031 -15.449219 15.796875 -17.703125 16.996094 -20.875 C 18.039062 -23.628906 20.460938 -24.96875 24.054688 -23.613281 C 27.765625 -22.207031 29.203125 -19.132812 28.515625 -15.148438 L 33.90625 -13.113281 C 35.441406 -19.167969 33.089844 -24.710938 25.96875 -27.40625 Z M 25.96875 -27.40625 "/></g></g></g><g fill="#fff8e7" fill-opacity="1"><g transform="translate(-26.249134, 664.925597)"><g><path d="M 72.195312 -19.910156 L 66.75 -21.972656 L 43.6875 11.324219 L 48.023438 -28.367188 L 41.078125 -30.996094 L 17.847656 1.480469 L 23.046875 -38.5 L 17.179688 -40.71875 L 12.453125 4.710938 L 19.277344 7.289062 L 42.449219 -24.660156 L 38.3125 14.492188 L 45.078125 17.050781 Z M 72.195312 -19.910156 "/></g></g></g><g fill="#fff8e7" fill-opacity="1"><g transform="translate(30.735541, 686.478195)"><g><path d="M 39.9375 -11.515625 C 41.566406 -17.261719 39.078125 -22.445312 32.132812 -25.074219 C 28.902344 -26.296875 26.363281 -26.640625 22.875 -25.5625 L 19.519531 -22.660156 L 26.335938 -40.679688 L 21.183594 -42.625 L 4.429688 1.675781 L 9.578125 3.621094 L 14.855469 -10.324219 C 18.953125 -21.160156 24.5 -23.167969 29.515625 -21.410156 C 34.46875 -19.671875 35.417969 -16.027344 34.3125 -12.203125 C 33.824219 -10.542969 33.324219 -9.226562 32.714844 -7.609375 L 26.101562 9.871094 L 31.25 11.820312 L 37.996094 -6.019531 C 38.972656 -8.59375 39.445312 -9.851562 39.9375 -11.515625 Z M 39.9375 -11.515625 "/></g></g></g><g fill="#fff8e7" fill-opacity="1"><g transform="translate(66.231226, 699.903282)"><g><path d="M 36.8125 -5.238281 C 40.320312 -14.515625 37.941406 -22.875 29.199219 -26.183594 C 20.519531 -29.464844 11.644531 -25.363281 7.75 -15.066406 C 3.515625 -3.871094 7.644531 3.847656 15.90625 6.972656 C 22.433594 9.441406 29.769531 8.316406 33.925781 1.128906 L 28.535156 -0.910156 C 26.097656 3.371094 21.769531 4.675781 17.640625 3.113281 C 12.972656 1.347656 10.085938 -2.960938 12.773438 -11.523438 L 35.765625 -2.828125 C 36.3125 -3.921875 36.628906 -4.757812 36.8125 -5.238281 Z M 27.585938 -22.277344 C 32.792969 -20.304688 34.179688 -15.46875 32.167969 -8.703125 L 14.328125 -15.453125 C 17.488281 -21.988281 22.558594 -24.179688 27.585938 -22.277344 Z M 27.585938 -22.277344 "/></g></g></g><g fill="#fff8e7" fill-opacity="1"><g transform="translate(99.093174, 712.332244)"><g><path d="M 29.15625 -26.0625 C 27.65625 -26.628906 25.835938 -26.699219 24.179688 -26.300781 L 19.699219 -23.136719 L 21.578125 -28.105469 L 16.429688 -30.054688 L 4.429688 1.675781 L 9.578125 3.621094 L 16.417969 -14.457031 C 19.15625 -21.699219 24.425781 -23.332031 29.679688 -20.9375 L 31.152344 -24.828125 C 30.664062 -25.355469 29.992188 -25.746094 29.15625 -26.0625 Z M 29.15625 -26.0625 "/></g></g></g><g fill="#fff8e7" fill-opacity="1"><g transform="translate(118.846275, 719.803211)"><g><path d="M 36.8125 -5.238281 C 40.320312 -14.515625 37.941406 -22.875 29.199219 -26.183594 C 20.519531 -29.464844 11.644531 -25.363281 7.75 -15.066406 C 3.515625 -3.871094 7.644531 3.847656 15.90625 6.972656 C 22.433594 9.441406 29.769531 8.316406 33.925781 1.128906 L 28.535156 -0.910156 C 26.097656 3.371094 21.769531 4.675781 17.640625 3.113281 C 12.972656 1.347656 10.085938 -2.960938 12.773438 -11.523438 L 35.765625 -2.828125 C 36.3125 -3.921875 36.628906 -4.757812 36.8125 -5.238281 Z M 27.585938 -22.277344 C 32.792969 -20.304688 34.179688 -15.46875 32.167969 -8.703125 L 14.328125 -15.453125 C 17.488281 -21.988281 22.558594 -24.179688 27.585938 -22.277344 Z M 27.585938 -22.277344 "/></g></g></g><g fill="#fff8e7" fill-opacity="1"><g transform="translate(-26.875783, 760.10883)"><g><path d="M 25.96875 -27.40625 C 19.441406 -29.871094 13.699219 -28.074219 11.5 -22.269531 C 9.394531 -16.703125 13.0625 -12.644531 18.160156 -8.9375 C 22.945312 -5.488281 24.488281 -3.054688 23.335938 0 C 22.179688 3.050781 18.839844 3.566406 15.425781 2.277344 C 11.773438 0.894531 9.453125 -1.832031 10.355469 -6.757812 L 4.96875 -8.796875 C 3.210938 -1.25 7.046875 3.625 13.570312 6.089844 C 20.277344 8.628906 26.496094 7.558594 28.761719 1.570312 C 30.800781 -3.816406 28.414062 -8.003906 21.835938 -12.679688 C 17.957031 -15.449219 15.796875 -17.703125 16.996094 -20.875 C 18.039062 -23.628906 20.460938 -24.96875 24.054688 -23.613281 C 27.765625 -22.207031 29.203125 -19.132812 28.515625 -15.148438 L 33.90625 -13.113281 C 35.441406 -19.167969 33.089844 -24.710938 25.96875 -27.40625 Z M 25.96875 -27.40625 "/></g></g></g><g fill="#fff8e7" fill-opacity="1"><g transform="translate(0.598956, 770.500255)"><g><path d="M 22.628906 8.558594 L 27.777344 10.507812 C 28.636719 6.792969 29.332031 4.59375 30.234375 2.199219 L 34.742188 -9.714844 C 35.261719 -11.09375 35.792969 -12.671875 36.148438 -13.972656 C 37.578125 -19.386719 35.605469 -23.757812 28.0625 -26.613281 C 21.058594 -29.261719 14.855469 -27.160156 11.820312 -20.574219 L 17.207031 -18.539062 C 19.21875 -22.773438 22.257812 -24.292969 26.566406 -22.660156 C 30.820312 -21.054688 31.769531 -18.503906 30.898438 -15.480469 C 30.566406 -14.238281 30.089844 -12.980469 29.570312 -11.601562 L 29.253906 -10.765625 L 27.21875 -11.535156 C 14.765625 -16.246094 7.972656 -14.570312 5.257812 -7.386719 C 3.039062 -1.519531 6.328125 3.351562 12.074219 5.523438 C 15.128906 6.679688 18.0625 7.242188 20.785156 6.5625 L 23.8125 3.804688 Z M 15.304688 2.230469 C 11.414062 0.757812 9.59375 -1.847656 11.042969 -5.675781 C 13.105469 -11.125 19.3125 -10.898438 27.804688 -6.933594 L 26.582031 -3.699219 C 24.410156 2.046875 20.09375 4.042969 15.304688 2.230469 Z M 15.304688 2.230469 "/></g></g></g><g fill="#fff8e7" fill-opacity="1"><g transform="translate(32.383454, 782.521707)"><g><path d="M 21.011719 -23.53125 L 26.9375 -21.289062 L 28.433594 -25.242188 L 22.507812 -27.480469 L 25.292969 -34.84375 L 20.144531 -36.792969 L 17.359375 -29.429688 L 13.105469 -31.035156 L 11.613281 -27.085938 L 15.863281 -25.476562 L 8.867188 -6.980469 C 8.1875 -5.183594 7.6875 -3.867188 7.433594 -3.003906 C 6.238281 1.058594 7.660156 3.445312 11.613281 4.941406 C 13.050781 5.484375 14.507812 5.964844 16.097656 6.292969 L 17.523438 2.523438 C 13.332031 1.484375 12.320312 0.347656 13.238281 -2.792969 C 13.496094 -3.65625 13.699219 -4.195312 14.105469 -5.273438 Z M 21.011719 -23.53125 "/></g></g></g><g fill="#fff8e7" fill-opacity="1"><g transform="translate(51.118961, 789.607803)"><g><path d="M 22.945312 -39.496094 C 21.089844 -40.199219 19.109375 -39.304688 18.40625 -37.449219 C 17.703125 -35.59375 18.597656 -33.613281 20.453125 -32.910156 C 22.308594 -32.210938 24.289062 -33.101562 24.992188 -34.957031 C 25.695312 -36.816406 24.800781 -38.792969 22.945312 -39.496094 Z M 9.578125 3.621094 L 21.578125 -28.105469 L 16.429688 -30.054688 L 4.429688 1.675781 Z M 9.578125 3.621094 "/></g></g></g><g fill="#fff8e7" fill-opacity="1"><g transform="translate(65.365138, 794.995955)"><g><path d="M 29.859375 -25.933594 C 19.082031 -30.007812 11.191406 -24.164062 7.796875 -15.183594 C 4.421875 -6.265625 6.449219 3.398438 17.222656 7.472656 C 28 11.546875 35.914062 5.644531 39.285156 -3.273438 C 42.683594 -12.253906 40.632812 -21.855469 29.859375 -25.933594 Z M 18.71875 3.519531 C 12.3125 1.097656 10.617188 -5.632812 13.421875 -13.058594 C 16.253906 -20.539062 21.957031 -24.40625 28.363281 -21.980469 C 34.769531 -19.558594 36.488281 -12.886719 33.660156 -5.402344 C 30.851562 2.019531 25.125 5.945312 18.71875 3.519531 Z M 18.71875 3.519531 "/></g></g></g></svg>